solid OpenSCAD_Model
  facet normal 0 1 -0
    outer loop
      vertex 7.5 18 1.77571
      vertex 6.60566 18 2.25
      vertex 7.5 18 2.25
    endloop
  endfacet
  facet normal 0 1 0
    outer loop
      vertex 7.5 18 1.77571
      vertex 5.97125 18 1.15116
      vertex 6.60566 18 2.25
    endloop
  endfacet
  facet normal 0 1 -0
    outer loop
      vertex 7.5 18 1.00897
      vertex 5.97125 18 1.15116
      vertex 7.5 18 1.77571
    endloop
  endfacet
  facet normal 0 1 0
    outer loop
      vertex 7.5 18 1.00897
      vertex 5.875 18 0.984455
      vertex 5.97125 18 1.15116
    endloop
  endfacet
  facet normal 0 1 0
    outer loop
      vertex 7.5 18 -2.1951
      vertex 4.125 18 0.984455
      vertex 5.875 18 0.984455
    endloop
  endfacet
  facet normal 0 1 0
    outer loop
      vertex 4.125 18 0.984455
      vertex 7.5 18 -2.1951
      vertex 0.875 18 0.984455
    endloop
  endfacet
  facet normal 0 1 -0
    outer loop
      vertex 1.39058 18 -9.72025
      vertex 0.875 18 0.984455
      vertex 7.5 18 -2.1951
    endloop
  endfacet
  facet normal -0 1 0
    outer loop
      vertex -7.5 18 -4.28463
      vertex -0.875 18 0.984455
      vertex -0.470378 18 -9.52465
    endloop
  endfacet
  facet normal 0 1 0
    outer loop
      vertex -0.875 18 0.984455
      vertex -7.5 18 -4.28463
      vertex -4.125 18 0.984455
    endloop
  endfacet
  facet normal 0 1 -0
    outer loop
      vertex 7.5 18 -2.1951
      vertex 5.875 18 0.984455
      vertex 7.5 18 1.00897
    endloop
  endfacet
  facet normal -0 1 0
    outer loop
      vertex -0.470378 18 -9.52465
      vertex 0.875 18 0.984455
      vertex 1.39058 18 -9.72025
    endloop
  endfacet
  facet normal 0 1 0
    outer loop
      vertex -5.875 18 0.984455
      vertex -7.5 18 -1.77571
      vertex -7.5 18 -1.00897
    endloop
  endfacet
  facet normal -0 1 0
    outer loop
      vertex -7.5 18 -1.77571
      vertex -4.125 18 0.984455
      vertex -7.5 18 -2.8018
    endloop
  endfacet
  facet normal 0 1 0
    outer loop
      vertex -4.125 18 0.984455
      vertex -7.5 18 -1.77571
      vertex -5.875 18 0.984455
    endloop
  endfacet
  facet normal 0 1 0
    outer loop
      vertex -4.125 18 0.984455
      vertex -7.5 18 -4.28463
      vertex -7.5 18 -2.8018
    endloop
  endfacet
  facet normal 0 1 -0
    outer loop
      vertex -2.25 18 -10.1029
      vertex -7.5 18 -4.28463
      vertex -0.470378 18 -9.52465
    endloop
  endfacet
  facet normal 0 1 0
    outer loop
      vertex 0.875 18 0.984455
      vertex -0.470378 18 -9.52465
      vertex -0.875 18 0.984455
    endloop
  endfacet
  facet normal 0 1 0
    outer loop
      vertex 7.5 18 -2.1951
      vertex 3.01109 18 -10.6558
      vertex 1.39058 18 -9.72025
    endloop
  endfacet
  facet normal 0 1 -0
    outer loop
      vertex 7.5 18 -10.7567
      vertex 3.01109 18 -10.6558
      vertex 7.5 18 -2.1951
    endloop
  endfacet
  facet normal 0 1 0
    outer loop
      vertex 3.01109 18 -10.6558
      vertex 7.5 18 -10.7567
      vertex 3.08439 18 -10.7567
    endloop
  endfacet
  facet normal 0 1 0
    outer loop
      vertex 4.02875 18 1.15116
      vertex 1.60566 18 2.25
      vertex 3.39434 18 2.25
    endloop
  endfacet
  facet normal 0 1 0
    outer loop
      vertex 4.02875 18 1.15116
      vertex 0.97125 18 1.15116
      vertex 1.60566 18 2.25
    endloop
  endfacet
  facet normal 0 1 0
    outer loop
      vertex 4.125 18 0.984455
      vertex 0.97125 18 1.15116
      vertex 4.02875 18 1.15116
    endloop
  endfacet
  facet normal 0 1 0
    outer loop
      vertex 0.97125 18 1.15116
      vertex 4.125 18 0.984455
      vertex 0.875 18 0.984455
    endloop
  endfacet
  facet normal 0 1 0
    outer loop
      vertex -0.97125 18 1.15116
      vertex -3.39434 18 2.25
      vertex -1.60566 18 2.25
    endloop
  endfacet
  facet normal 0 1 0
    outer loop
      vertex -0.97125 18 1.15116
      vertex -4.02875 18 1.15116
      vertex -3.39434 18 2.25
    endloop
  endfacet
  facet normal 0 1 0
    outer loop
      vertex -0.875 18 0.984455
      vertex -4.02875 18 1.15116
      vertex -0.97125 18 1.15116
    endloop
  endfacet
  facet normal 0 1 0
    outer loop
      vertex -4.02875 18 1.15116
      vertex -0.875 18 0.984455
      vertex -4.125 18 0.984455
    endloop
  endfacet
  facet normal 0 1 0
    outer loop
      vertex -6.60566 18 2.25
      vertex -7.5 18 2.1951
      vertex -7.5 18 2.25
    endloop
  endfacet
  facet normal 0 1 0
    outer loop
      vertex -5.97125 18 1.15116
      vertex -7.5 18 2.1951
      vertex -6.60566 18 2.25
    endloop
  endfacet
  facet normal 0 1 0
    outer loop
      vertex -7.5 18 -1.00897
      vertex -5.97125 18 1.15116
      vertex -5.875 18 0.984455
    endloop
  endfacet
  facet normal 0 1 0
    outer loop
      vertex -5.97125 18 1.15116
      vertex -7.5 18 -1.00897
      vertex -7.5 18 2.1951
    endloop
  endfacet
  facet normal 0 1 0
    outer loop
      vertex -7.5 18 -4.28463
      vertex -2.25 18 -10.1029
      vertex -7.5 18 -6.68389
    endloop
  endfacet
  facet normal 0 1 -0
    outer loop
      vertex -2.97618 18 -10.7567
      vertex -7.5 18 -6.68389
      vertex -2.25 18 -10.1029
    endloop
  endfacet
  facet normal 0 1 0
    outer loop
      vertex -7.5 18 -6.68389
      vertex -2.97618 18 -10.7567
      vertex -7.5 18 -10.7567
    endloop
  endfacet
  facet normal 0 -1 0
    outer loop
      vertex 1.59099 0 -12.409
      vertex 7.5 0 -2.1951
      vertex 0 0 -11.75
    endloop
  endfacet
  facet normal 0 -1 0
    outer loop
      vertex 2.25 0 -14
      vertex 7.5 0 -2.1951
      vertex 1.59099 0 -12.409
    endloop
  endfacet
  facet normal 0 -1 0
    outer loop
      vertex 7.5 0 -21
      vertex 2.25 0 -14
      vertex 1.59099 0 -15.591
    endloop
  endfacet
  facet normal 0 -1 0
    outer loop
      vertex 7.5 0 -21
      vertex 0 0 -16.25
      vertex -7.5 0 -21
    endloop
  endfacet
  facet normal 0 -1 0
    outer loop
      vertex 0 0 -16.25
      vertex 7.5 0 -21
      vertex 0.0636396 0 -16.2236
    endloop
  endfacet
  facet normal 0 -1 0
    outer loop
      vertex 2.25 0 -14
      vertex 7.5 0 -21
      vertex 7.5 0 -2.1951
    endloop
  endfacet
  facet normal 0 -1 0
    outer loop
      vertex 0.0636396 0 -16.2236
      vertex 7.5 0 -21
      vertex 1.59099 0 -15.591
    endloop
  endfacet
  facet normal 0 -1 0
    outer loop
      vertex -7.5 0 21
      vertex 0 0 16.25
      vertex 7.5 0 21
    endloop
  endfacet
  facet normal 0 -1 0
    outer loop
      vertex -7.5 0 21
      vertex -1.59099 0 15.591
      vertex 0 0 16.25
    endloop
  endfacet
  facet normal 0 -1 0
    outer loop
      vertex -7.5 0 21
      vertex -2.25 0 14
      vertex -1.59099 0 15.591
    endloop
  endfacet
  facet normal 0 -1 0
    outer loop
      vertex -7.5 0 2.1951
      vertex -2.25 0 14
      vertex -7.5 0 21
    endloop
  endfacet
  facet normal 0 -1 0
    outer loop
      vertex -7.5 0 2.1951
      vertex -0.0636396 0 11.7764
      vertex -1.59099 0 12.409
    endloop
  endfacet
  facet normal 0 -1 -0
    outer loop
      vertex -0.0636396 0 11.7764
      vertex -7.5 0 2.1951
      vertex 0 0 11.75
    endloop
  endfacet
  facet normal 0 -1 -0
    outer loop
      vertex -2.25 0 14
      vertex -7.5 0 2.1951
      vertex -1.59099 0 12.409
    endloop
  endfacet
  facet normal 0 -1 0
    outer loop
      vertex 1.59099 0 15.591
      vertex 7.5 0 21
      vertex 0 0 16.25
    endloop
  endfacet
  facet normal 0 -1 0
    outer loop
      vertex 2.25 0 14
      vertex 7.5 0 21
      vertex 1.59099 0 15.591
    endloop
  endfacet
  facet normal 0 -1 0
    outer loop
      vertex 7.5 0 -2.1951
      vertex 2.25 0 14
      vertex 1.59099 0 12.409
    endloop
  endfacet
  facet normal 0 -1 0
    outer loop
      vertex 7.5 0 -2.1951
      vertex 0.0636396 0 11.7764
      vertex 0 0 11.75
    endloop
  endfacet
  facet normal 0 -1 0
    outer loop
      vertex 7.5 0 -2.1951
      vertex 0 0 11.75
      vertex -7.5 0 2.1951
    endloop
  endfacet
  facet normal 0 -1 0
    outer loop
      vertex 2.25 0 14
      vertex 7.5 0 -2.1951
      vertex 7.5 0 21
    endloop
  endfacet
  facet normal 0 -1 0
    outer loop
      vertex 0.0636396 0 11.7764
      vertex 7.5 0 -2.1951
      vertex 1.59099 0 12.409
    endloop
  endfacet
  facet normal 0 -1 0
    outer loop
      vertex -7.5 0 2.1951
      vertex 0 0 -11.75
      vertex 7.5 0 -2.1951
    endloop
  endfacet
  facet normal 0 -1 0
    outer loop
      vertex -7.5 0 2.1951
      vertex -1.59099 0 -12.409
      vertex 0 0 -11.75
    endloop
  endfacet
  facet normal 0 -1 0
    outer loop
      vertex -7.5 0 2.1951
      vertex -2.25 0 -14
      vertex -1.59099 0 -12.409
    endloop
  endfacet
  facet normal 0 -1 -0
    outer loop
      vertex -0.0636396 0 -16.2236
      vertex -7.5 0 -21
      vertex 0 0 -16.25
    endloop
  endfacet
  facet normal 0 -1 -0
    outer loop
      vertex -1.59099 0 -15.591
      vertex -7.5 0 -21
      vertex -0.0636396 0 -16.2236
    endloop
  endfacet
  facet normal 0 -1 -0
    outer loop
      vertex -2.25 0 -14
      vertex -7.5 0 -21
      vertex -1.59099 0 -15.591
    endloop
  endfacet
  facet normal 0 -1 0
    outer loop
      vertex -7.5 0 -21
      vertex -2.25 0 -14
      vertex -7.5 0 2.1951
    endloop
  endfacet
  facet normal -1 8.23714e-08 -9.14827e-08
    outer loop
      vertex -7.5 12.3435 -16.9894
      vertex -7.5 18 -6.68389
      vertex -7.5 15.606 -14.0517
    endloop
  endfacet
  facet normal -1 -8.42988e-08 0
    outer loop
      vertex -7.5 18 -6.68389
      vertex -7.5 12.3435 -16.9894
      vertex -7.5 18 -4.28463
    endloop
  endfacet
  facet normal 0 0.104528 -0.994522
    outer loop
      vertex -7.5 0 -21
      vertex 7.5 4.36615 -20.5411
      vertex 7.5 0 -21
    endloop
  endfacet
  facet normal 0 0.104528 -0.994522
    outer loop
      vertex 7.5 4.36615 -20.5411
      vertex -7.5 0 -21
      vertex -7.5 4.36615 -20.5411
    endloop
  endfacet
  facet normal -0 0.104528 0.994522
    outer loop
      vertex -7.5 4.36615 20.5411
      vertex 7.5 0 21
      vertex 7.5 4.36615 20.5411
    endloop
  endfacet
  facet normal 0 0.104528 0.994522
    outer loop
      vertex 7.5 0 21
      vertex -7.5 4.36615 20.5411
      vertex -7.5 0 21
    endloop
  endfacet
  facet normal -1 2.32819e-08 -7.16542e-08
    outer loop
      vertex -7.5 4.36615 -20.5411
      vertex -7.5 18 -2.8018
      vertex -7.5 8.54147 -19.1845
    endloop
  endfacet
  facet normal -1 -6.9949e-08 0
    outer loop
      vertex -7.5 18 -2.8018
      vertex -7.5 4.36615 -20.5411
      vertex -7.5 18 -1.77571
    endloop
  endfacet
  facet normal -1 0 0
    outer loop
      vertex -7.5 18 -1.00897
      vertex -7.5 12.9644 0.498101
      vertex -7.5 18 2.1951
    endloop
  endfacet
  facet normal -1 -0 0
    outer loop
      vertex -7.5 18 -1.00897
      vertex -7.5 12.6837 -1.45395
      vertex -7.5 12.9644 0.498101
    endloop
  endfacet
  facet normal -1 0 0
    outer loop
      vertex -7.5 18 -1.00897
      vertex -7.5 11.3922 -2.94439
      vertex -7.5 12.6837 -1.45395
    endloop
  endfacet
  facet normal -1 1.89778e-08 -6.47928e-08
    outer loop
      vertex -7.5 0 -21
      vertex -7.5 11.3922 -2.94439
      vertex -7.5 18 -1.00897
    endloop
  endfacet
  facet normal -1 1.90356e-08 -6.48293e-08
    outer loop
      vertex -7.5 11.3922 -2.94439
      vertex -7.5 0 -21
      vertex -7.5 10.3042 -3.26386
    endloop
  endfacet
  facet normal -1 1.90356e-08 -6.48293e-08
    outer loop
      vertex -7.5 10.3042 -3.26386
      vertex -7.5 0 -21
      vertex -7.5 9.5 -3.5
    endloop
  endfacet
  facet normal -1 -1.38015e-08 -4.70035e-08
    outer loop
      vertex -7.5 0 -21
      vertex -7.5 8.6958 -3.26386
      vertex -7.5 9.5 -3.5
    endloop
  endfacet
  facet normal -1 -1.38015e-08 -4.70034e-08
    outer loop
      vertex -7.5 0 -21
      vertex -7.5 7.60776 -2.94439
      vertex -7.5 8.6958 -3.26386
    endloop
  endfacet
  facet normal -1 -4.10129e-08 -3.55379e-08
    outer loop
      vertex -7.5 0 -21
      vertex -7.5 6.31629 -1.45395
      vertex -7.5 7.60776 -2.94439
    endloop
  endfacet
  facet normal -1 -2.37532e-08 -4.11153e-08
    outer loop
      vertex -7.5 0 2.1951
      vertex -7.5 6.31629 -1.45395
      vertex -7.5 0 -21
    endloop
  endfacet
  facet normal -1 0 0
    outer loop
      vertex -7.5 6.31629 -1.45395
      vertex -7.5 0 2.1951
      vertex -7.5 6.03562 0.498101
    endloop
  endfacet
  facet normal -1 0 0
    outer loop
      vertex -7.5 6.03562 0.498101
      vertex -7.5 0 2.1951
      vertex -7.5 6.03562 2.1951
    endloop
  endfacet
  facet normal -1 -0 0
    outer loop
      vertex -7.5 18 2.1951
      vertex -7.5 12.9644 0.498101
      vertex -7.5 12.9644 2.1951
    endloop
  endfacet
  facet normal 1 -3.38096e-08 4.11153e-08
    outer loop
      vertex 7.5 0 -2.1951
      vertex 7.5 6 14.3363
      vertex 7.5 0 21
    endloop
  endfacet
  facet normal 1 0 0
    outer loop
      vertex 7.5 6.03562 2.25
      vertex 7.5 6 2.25
      vertex 7.5 6.03562 0.498101
    endloop
  endfacet
  facet normal 1 -2.92285e-08 3.94526e-08
    outer loop
      vertex 7.5 6 14.3363
      vertex 7.5 0 -2.1951
      vertex 7.5 6 2.25
    endloop
  endfacet
  facet normal 1 0 0
    outer loop
      vertex 7.5 6 2.25
      vertex 7.5 0 -2.1951
      vertex 7.5 6.03562 0.498101
    endloop
  endfacet
  facet normal 1 0 0
    outer loop
      vertex 7.5 6.31629 -1.45395
      vertex 7.5 0 -2.1951
      vertex 7.5 6.95849 -2.1951
    endloop
  endfacet
  facet normal 1 0 0
    outer loop
      vertex 7.5 6.03562 0.498101
      vertex 7.5 0 -2.1951
      vertex 7.5 6.31629 -1.45395
    endloop
  endfacet
  facet normal 1 0 0
    outer loop
      vertex 7.5 12.9644 0.498101
      vertex 7.5 18 1.00897
      vertex 7.5 16.8826 2.25
    endloop
  endfacet
  facet normal 1 0 0
    outer loop
      vertex 7.5 12.9644 0.498101
      vertex 7.5 16.8826 2.25
      vertex 7.5 12.9644 2.25
    endloop
  endfacet
  facet normal 1 0 0
    outer loop
      vertex 7.5 18 1.00897
      vertex 7.5 12.9644 0.498101
      vertex 7.5 18 -2.1951
    endloop
  endfacet
  facet normal 1 -0 0
    outer loop
      vertex 7.5 12.6837 -1.45395
      vertex 7.5 18 -2.1951
      vertex 7.5 12.9644 0.498101
    endloop
  endfacet
  facet normal 1 0 0
    outer loop
      vertex 7.5 18 -2.1951
      vertex 7.5 12.6837 -1.45395
      vertex 7.5 12.0415 -2.1951
    endloop
  endfacet
  facet normal -1 2.91666e-08 -5.05181e-08
    outer loop
      vertex -7.5 8.54147 -19.1845
      vertex -7.5 18 -4.28463
      vertex -7.5 12.3435 -16.9894
    endloop
  endfacet
  facet normal -1 4.56153e-07 -3.21573e-07
    outer loop
      vertex -7.5 18 -4.28463
      vertex -7.5 8.54147 -19.1845
      vertex -7.5 18 -2.8018
    endloop
  endfacet
  facet normal 0 0.309017 -0.951056
    outer loop
      vertex -7.5 4.36615 -20.5411
      vertex 7.5 8.54147 -19.1845
      vertex 7.5 4.36615 -20.5411
    endloop
  endfacet
  facet normal 0 0.309017 -0.951056
    outer loop
      vertex 7.5 8.54147 -19.1845
      vertex -7.5 4.36615 -20.5411
      vertex -7.5 8.54147 -19.1845
    endloop
  endfacet
  facet normal 0 0.809017 -0.587785
    outer loop
      vertex -3.64058 17.5654 -11.355
      vertex -7.5 18 -10.7567
      vertex -2.97618 18 -10.7567
    endloop
  endfacet
  facet normal 2.33753e-08 0.809017 -0.587785
    outer loop
      vertex -4.40166 16.3234 -13.0644
      vertex -7.5 18 -10.7567
      vertex -3.64058 17.5654 -11.355
    endloop
  endfacet
  facet normal 0 0.809017 -0.587785
    outer loop
      vertex -7.5 15.606 -14.0517
      vertex -4.40166 16.3234 -13.0644
      vertex -4.40166 15.606 -14.0517
    endloop
  endfacet
  facet normal -4.2217e-08 0.809017 -0.587785
    outer loop
      vertex -4.40166 16.3234 -13.0644
      vertex -7.5 15.606 -14.0517
      vertex -7.5 18 -10.7567
    endloop
  endfacet
  facet normal 0 0.809017 -0.587785
    outer loop
      vertex 7.5 18 -10.7567
      vertex 4.11095 16.9734 -12.1697
      vertex 3.08439 18 -10.7567
    endloop
  endfacet
  facet normal 1.97411e-07 0.809017 -0.587785
    outer loop
      vertex 7.5 15.606 -14.0517
      vertex 4.11095 16.9734 -12.1697
      vertex 7.5 18 -10.7567
    endloop
  endfacet
  facet normal -8.35601e-08 0.809017 -0.587786
    outer loop
      vertex 4.11095 16.9734 -12.1697
      vertex 7.5 15.606 -14.0517
      vertex 4.5 15.6436 -14
    endloop
  endfacet
  facet normal 0 0.809019 -0.587782
    outer loop
      vertex 4.5 15.6436 -14
      vertex 7.5 15.606 -14.0517
      vertex 4.489 15.606 -14.0517
    endloop
  endfacet
  facet normal -3.54778e-07 0.5 -0.866025
    outer loop
      vertex 3.01109 11.729 -17.3442
      vertex 7.5 12.3435 -16.9894
      vertex 7.5 8.54147 -19.1845
    endloop
  endfacet
  facet normal 0 0.499998 -0.866027
    outer loop
      vertex 7.5 12.3435 -16.9894
      vertex 3.01109 11.729 -17.3442
      vertex 3.26886 12.3435 -16.9894
    endloop
  endfacet
  facet normal 3.5465e-07 0.500001 -0.866025
    outer loop
      vertex 7.5 8.54147 -19.1845
      vertex 1.39058 10.1085 -18.2798
      vertex 3.01109 11.729 -17.3442
    endloop
  endfacet
  facet normal 1.64261e-08 0.5 -0.866026
    outer loop
      vertex 7.5 8.54147 -19.1845
      vertex -0.470378 9.76968 -18.4753
      vertex 1.39058 10.1085 -18.2798
    endloop
  endfacet
  facet normal 0 0.5 -0.866026
    outer loop
      vertex -7.5 8.54147 -19.1845
      vertex -0.470378 9.76968 -18.4753
      vertex 7.5 8.54147 -19.1845
    endloop
  endfacet
  facet normal -2.09256e-07 0.5 -0.866025
    outer loop
      vertex -7.5 8.54147 -19.1845
      vertex -2.25 10.7712 -17.8971
      vertex -0.470378 9.76968 -18.4753
    endloop
  endfacet
  facet normal 2.25026e-07 0.5 -0.866026
    outer loop
      vertex -7.5 8.54147 -19.1845
      vertex -3.25817 12.3435 -16.9894
      vertex -2.25 10.7712 -17.8971
    endloop
  endfacet
  facet normal 0 0.5 -0.866025
    outer loop
      vertex -3.25817 12.3435 -16.9894
      vertex -7.5 8.54147 -19.1845
      vertex -7.5 12.3435 -16.9894
    endloop
  endfacet
  facet normal -0 0.309017 0.951056
    outer loop
      vertex -7.5 6 20.0102
      vertex 7.5 4.36615 20.5411
      vertex 7.5 6 20.0102
    endloop
  endfacet
  facet normal 0 0.309017 0.951056
    outer loop
      vertex 7.5 4.36615 20.5411
      vertex -7.5 6 20.0102
      vertex -7.5 4.36615 20.5411
    endloop
  endfacet
  facet normal -1 5.78311e-09 -5.50226e-08
    outer loop
      vertex -7.5 0 -21
      vertex -7.5 18 -1.77571
      vertex -7.5 4.36615 -20.5411
    endloop
  endfacet
  facet normal -1 -5.29819e-08 0
    outer loop
      vertex -7.5 18 -1.77571
      vertex -7.5 0 -21
      vertex -7.5 18 -1.00897
    endloop
  endfacet
  facet normal -1 0 0
    outer loop
      vertex -7.5 6.03562 2.1951
      vertex -7.5 6 2.25
      vertex -7.5 6.03562 2.25
    endloop
  endfacet
  facet normal -1 0 0
    outer loop
      vertex -7.5 0 2.1951
      vertex -7.5 6 20.0102
      vertex -7.5 6 2.25
    endloop
  endfacet
  facet normal -1 0 0
    outer loop
      vertex -7.5 0 2.1951
      vertex -7.5 6 2.25
      vertex -7.5 6.03562 2.1951
    endloop
  endfacet
  facet normal -1 -0 0
    outer loop
      vertex -7.5 6 20.0102
      vertex -7.5 0 2.1951
      vertex -7.5 4.36615 20.5411
    endloop
  endfacet
  facet normal -1 -0 0
    outer loop
      vertex -7.5 4.36615 20.5411
      vertex -7.5 0 2.1951
      vertex -7.5 0 21
    endloop
  endfacet
  facet normal -1 0 0
    outer loop
      vertex -7.5 12.9644 2.1951
      vertex -7.5 18 2.25
      vertex -7.5 18 2.1951
    endloop
  endfacet
  facet normal -1 -0 0
    outer loop
      vertex -7.5 18 2.25
      vertex -7.5 12.9644 2.1951
      vertex -7.5 12.9644 2.25
    endloop
  endfacet
  facet normal 1 -0 0
    outer loop
      vertex 7.5 11.3922 -2.94439
      vertex 7.5 18 -10.7567
      vertex 7.5 18 -2.1951
    endloop
  endfacet
  facet normal 1 -0 0
    outer loop
      vertex 7.5 10.588 -3.18052
      vertex 7.5 18 -10.7567
      vertex 7.5 11.3922 -2.94439
    endloop
  endfacet
  facet normal 1 0 0
    outer loop
      vertex 7.5 11.3922 -2.94439
      vertex 7.5 18 -2.1951
      vertex 7.5 12.0415 -2.1951
    endloop
  endfacet
  facet normal 1 0 0
    outer loop
      vertex 7.5 18 -10.7567
      vertex 7.5 10.588 -3.18052
      vertex 7.5 15.606 -14.0517
    endloop
  endfacet
  facet normal 1 -0 0
    outer loop
      vertex 7.5 9.5 -3.5
      vertex 7.5 15.606 -14.0517
      vertex 7.5 10.588 -3.18052
    endloop
  endfacet
  facet normal 1 0 0
    outer loop
      vertex 7.5 15.606 -14.0517
      vertex 7.5 9.5 -3.5
      vertex 7.5 12.3435 -16.9894
    endloop
  endfacet
  facet normal 1 0 0
    outer loop
      vertex 7.5 8.41196 -3.18052
      vertex 7.5 12.3435 -16.9894
      vertex 7.5 9.5 -3.5
    endloop
  endfacet
  facet normal 1 0 0
    outer loop
      vertex 7.5 12.3435 -16.9894
      vertex 7.5 8.41196 -3.18052
      vertex 7.5 8.54147 -19.1845
    endloop
  endfacet
  facet normal 1 0 0
    outer loop
      vertex 7.5 7.60776 -2.94439
      vertex 7.5 8.54147 -19.1845
      vertex 7.5 8.41196 -3.18052
    endloop
  endfacet
  facet normal 1 -0 0
    outer loop
      vertex 7.5 0 -2.1951
      vertex 7.5 7.60776 -2.94439
      vertex 7.5 6.95849 -2.1951
    endloop
  endfacet
  facet normal 1 0 0
    outer loop
      vertex 7.5 7.60776 -2.94439
      vertex 7.5 4.36615 -20.5411
      vertex 7.5 8.54147 -19.1845
    endloop
  endfacet
  facet normal 1 0 0
    outer loop
      vertex 7.5 7.60776 -2.94439
      vertex 7.5 0 -2.1951
      vertex 7.5 4.36615 -20.5411
    endloop
  endfacet
  facet normal 1 0 0
    outer loop
      vertex 7.5 4.36615 -20.5411
      vertex 7.5 0 -2.1951
      vertex 7.5 0 -21
    endloop
  endfacet
  facet normal -1 1.61143e-07 -1.17077e-07
    outer loop
      vertex -7.5 15.606 -14.0517
      vertex -7.5 18 -6.68389
      vertex -7.5 18 -10.7567
    endloop
  endfacet
  facet normal 0 0.669131 -0.743144
    outer loop
      vertex -7.5 12.3435 -16.9894
      vertex -3.64058 12.7259 -16.645
      vertex -3.25817 12.3435 -16.9894
    endloop
  endfacet
  facet normal 1.22562e-07 0.669131 -0.743145
    outer loop
      vertex -7.5 12.3435 -16.9894
      vertex -4.40166 14.6244 -14.9356
      vertex -3.64058 12.7259 -16.645
    endloop
  endfacet
  facet normal 4.14954e-10 0.669131 -0.743145
    outer loop
      vertex -7.5 15.606 -14.0517
      vertex -4.40166 14.6244 -14.9356
      vertex -7.5 12.3435 -16.9894
    endloop
  endfacet
  facet normal 0 0.669131 -0.743145
    outer loop
      vertex -4.40166 14.6244 -14.9356
      vertex -7.5 15.606 -14.0517
      vertex -4.40166 15.606 -14.0517
    endloop
  endfacet
  facet normal -4.40267e-08 0.669131 -0.743145
    outer loop
      vertex 4.11095 13.6307 -15.8303
      vertex 7.5 15.606 -14.0517
      vertex 7.5 12.3435 -16.9894
    endloop
  endfacet
  facet normal 0 0.669131 -0.743145
    outer loop
      vertex 7.5 15.606 -14.0517
      vertex 4.11095 13.6307 -15.8303
      vertex 4.489 15.606 -14.0517
    endloop
  endfacet
  facet normal 0 0.669131 -0.743145
    outer loop
      vertex 4.11095 13.6307 -15.8303
      vertex 7.5 12.3435 -16.9894
      vertex 3.26886 12.3435 -16.9894
    endloop
  endfacet
  facet normal 1 0 0
    outer loop
      vertex 7.5 6 20.0102
      vertex 7.5 4.36615 20.5411
      vertex 7.5 6 18.2923
    endloop
  endfacet
  facet normal 1 0 -0
    outer loop
      vertex 7.5 18 1.77571
      vertex 7.5 18 2.25
      vertex 7.5 17.6554 2.25
    endloop
  endfacet
  facet normal 1 0 0
    outer loop
      vertex 7.5 0 21
      vertex 7.5 6 18.2923
      vertex 7.5 4.36615 20.5411
    endloop
  endfacet
  facet normal 1 5.43961e-08 1.20536e-07
    outer loop
      vertex 7.5 6 18.2923
      vertex 7.5 0 21
      vertex 7.5 6 14.3363
    endloop
  endfacet
  facet normal 1 -0 0
    outer loop
      vertex 7.5 16.8826 2.25
      vertex 7.5 18 1.77571
      vertex 7.5 17.6554 2.25
    endloop
  endfacet
  facet normal 1 0 0
    outer loop
      vertex 7.5 18 1.77571
      vertex 7.5 16.8826 2.25
      vertex 7.5 18 1.00897
    endloop
  endfacet
  facet normal 0 -0.281733 0.959493
    outer loop
      vertex -7.5 11.3922 -2.94439
      vertex 7.5 10.588 -3.18052
      vertex 7.5 11.3922 -2.94439
    endloop
  endfacet
  facet normal -2.6523e-09 -0.281733 0.959493
    outer loop
      vertex 7.5 10.588 -3.18052
      vertex -7.5 11.3922 -2.94439
      vertex -7.5 10.3042 -3.26386
    endloop
  endfacet
  facet normal -1.06092e-08 -0.281733 0.959493
    outer loop
      vertex -7.5 10.3042 -3.26386
      vertex 7.5 9.5 -3.5
      vertex 7.5 10.588 -3.18052
    endloop
  endfacet
  facet normal 0 -0.281732 0.959493
    outer loop
      vertex 7.5 9.5 -3.5
      vertex -7.5 10.3042 -3.26386
      vertex -7.5 9.5 -3.5
    endloop
  endfacet
  facet normal 1.05871e-08 0.281733 0.959493
    outer loop
      vertex -7.5 7.60776 -2.94439
      vertex 7.5 8.41196 -3.18052
      vertex -7.5 8.6958 -3.26386
    endloop
  endfacet
  facet normal 0 0.281733 0.959493
    outer loop
      vertex 7.5 8.41196 -3.18052
      vertex -7.5 7.60776 -2.94439
      vertex 7.5 7.60776 -2.94439
    endloop
  endfacet
  facet normal 0 0.281732 0.959493
    outer loop
      vertex -7.5 8.6958 -3.26386
      vertex 7.5 9.5 -3.5
      vertex -7.5 9.5 -3.5
    endloop
  endfacet
  facet normal 2.63015e-09 0.281732 0.959493
    outer loop
      vertex 7.5 9.5 -3.5
      vertex -7.5 8.6958 -3.26386
      vertex 7.5 8.41196 -3.18052
    endloop
  endfacet
  facet normal 0 -1 0
    outer loop
      vertex -7.5 12.9644 2.1951
      vertex -6.60566 12.9644 2.25
      vertex -7.5 12.9644 2.25
    endloop
  endfacet
  facet normal 0 -1 0
    outer loop
      vertex -7.5 12.9644 0.498101
      vertex -6.60566 12.9644 2.25
      vertex -7.5 12.9644 2.1951
    endloop
  endfacet
  facet normal 0 -1 -0
    outer loop
      vertex -6.60566 12.9644 2.25
      vertex -7.5 12.9644 0.498101
      vertex -5.92719 12.9644 1.07485
    endloop
  endfacet
  facet normal 0 -1 0
    outer loop
      vertex -7.5 12.9644 0.498101
      vertex -4.125 12.9644 0.984455
      vertex -5.875 12.9644 0.984455
    endloop
  endfacet
  facet normal 0 -1 -0
    outer loop
      vertex -4.125 12.9644 0.984455
      vertex -7.5 12.9644 0.498101
      vertex -0.875 12.9644 0.984455
    endloop
  endfacet
  facet normal 0 -1 -0
    outer loop
      vertex -0.875 12.9644 0.984455
      vertex -7.5 12.9644 0.498101
      vertex 0.875 12.9644 0.984455
    endloop
  endfacet
  facet normal 0 -1 0
    outer loop
      vertex 7.5 12.9644 0.498101
      vertex 0.875 12.9644 0.984455
      vertex -7.5 12.9644 0.498101
    endloop
  endfacet
  facet normal 0 -1 0
    outer loop
      vertex 0.875 12.9644 0.984455
      vertex 7.5 12.9644 0.498101
      vertex 4.125 12.9644 0.984455
    endloop
  endfacet
  facet normal 0 -1 -0
    outer loop
      vertex -5.92719 12.9644 1.07485
      vertex -7.5 12.9644 0.498101
      vertex -5.875 12.9644 0.984455
    endloop
  endfacet
  facet normal 0 -1 0
    outer loop
      vertex -4.07281 12.9644 1.07485
      vertex -1.60566 12.9644 2.25
      vertex -3.39434 12.9644 2.25
    endloop
  endfacet
  facet normal 0 -1 0
    outer loop
      vertex -4.07281 12.9644 1.07485
      vertex -0.927188 12.9644 1.07485
      vertex -1.60566 12.9644 2.25
    endloop
  endfacet
  facet normal 0 -1 0
    outer loop
      vertex -4.125 12.9644 0.984455
      vertex -0.927188 12.9644 1.07485
      vertex -4.07281 12.9644 1.07485
    endloop
  endfacet
  facet normal 0 -1 -0
    outer loop
      vertex -0.927188 12.9644 1.07485
      vertex -4.125 12.9644 0.984455
      vertex -0.875 12.9644 0.984455
    endloop
  endfacet
  facet normal 0 -1 0
    outer loop
      vertex 0.927188 12.9644 1.07485
      vertex 3.39434 12.9644 2.25
      vertex 1.60566 12.9644 2.25
    endloop
  endfacet
  facet normal 0 -1 0
    outer loop
      vertex 0.927188 12.9644 1.07485
      vertex 4.07281 12.9644 1.07485
      vertex 3.39434 12.9644 2.25
    endloop
  endfacet
  facet normal 0 -1 0
    outer loop
      vertex 0.875 12.9644 0.984455
      vertex 4.07281 12.9644 1.07485
      vertex 0.927188 12.9644 1.07485
    endloop
  endfacet
  facet normal 0 -1 -0
    outer loop
      vertex 4.07281 12.9644 1.07485
      vertex 0.875 12.9644 0.984455
      vertex 4.125 12.9644 0.984455
    endloop
  endfacet
  facet normal 0 -1 0
    outer loop
      vertex 7.5 12.9644 0.498101
      vertex 6.60566 12.9644 2.25
      vertex 5.92719 12.9644 1.07485
    endloop
  endfacet
  facet normal 0 -1 0
    outer loop
      vertex 7.5 12.9644 0.498101
      vertex 5.92719 12.9644 1.07485
      vertex 5.875 12.9644 0.984455
    endloop
  endfacet
  facet normal 0 -1 0
    outer loop
      vertex 6.60566 12.9644 2.25
      vertex 7.5 12.9644 0.498101
      vertex 7.5 12.9644 2.25
    endloop
  endfacet
  facet normal 0 -1 0
    outer loop
      vertex 4.125 12.9644 0.984455
      vertex 7.5 12.9644 0.498101
      vertex 5.875 12.9644 0.984455
    endloop
  endfacet
  facet normal 0 -0.755749 0.654861
    outer loop
      vertex -7.5 12.6837 -1.45395
      vertex 7.5 12.0415 -2.1951
      vertex 7.5 12.6837 -1.45395
    endloop
  endfacet
  facet normal -2.28259e-08 -0.75575 0.654861
    outer loop
      vertex -7.5 11.3922 -2.94439
      vertex 7.5 12.0415 -2.1951
      vertex -7.5 12.6837 -1.45395
    endloop
  endfacet
  facet normal 0 -0.75575 0.65486
    outer loop
      vertex 7.5 12.0415 -2.1951
      vertex -7.5 11.3922 -2.94439
      vertex 7.5 11.3922 -2.94439
    endloop
  endfacet
  facet normal 0 1 0
    outer loop
      vertex 7.5 6.03562 2.25
      vertex -7.5 6.03562 2.1951
      vertex -7.5 6.03562 2.25
    endloop
  endfacet
  facet normal 0 1 -0
    outer loop
      vertex 7.5 6.03562 0.498101
      vertex -7.5 6.03562 2.1951
      vertex 7.5 6.03562 2.25
    endloop
  endfacet
  facet normal 0 1 0
    outer loop
      vertex -7.5 6.03562 2.1951
      vertex 7.5 6.03562 0.498101
      vertex -7.5 6.03562 0.498101
    endloop
  endfacet
  facet normal 0 -0.989821 0.142315
    outer loop
      vertex -7.5 12.6837 -1.45395
      vertex 7.5 12.9644 0.498101
      vertex -7.5 12.9644 0.498101
    endloop
  endfacet
  facet normal 0 -0.989821 0.142315
    outer loop
      vertex 7.5 12.9644 0.498101
      vertex -7.5 12.6837 -1.45395
      vertex 7.5 12.6837 -1.45395
    endloop
  endfacet
  facet normal 0 0.75575 0.654861
    outer loop
      vertex 7.5 6.95849 -2.1951
      vertex -7.5 6.31629 -1.45395
      vertex 7.5 6.31629 -1.45395
    endloop
  endfacet
  facet normal -0 0.75575 0.654861
    outer loop
      vertex -7.5 7.60776 -2.94439
      vertex 7.5 6.95849 -2.1951
      vertex 7.5 7.60776 -2.94439
    endloop
  endfacet
  facet normal 1.19875e-09 0.75575 0.654861
    outer loop
      vertex 7.5 6.95849 -2.1951
      vertex -7.5 7.60776 -2.94439
      vertex -7.5 6.31629 -1.45395
    endloop
  endfacet
  facet normal 0 0.989821 0.142315
    outer loop
      vertex 7.5 6.31629 -1.45395
      vertex -7.5 6.03562 0.498101
      vertex 7.5 6.03562 0.498101
    endloop
  endfacet
  facet normal 0 0.989821 0.142315
    outer loop
      vertex -7.5 6.03562 0.498101
      vertex 7.5 6.31629 -1.45395
      vertex -7.5 6.31629 -1.45395
    endloop
  endfacet
  facet normal 0.866026 -0 0.5
    outer loop
      vertex -6.60566 12.9644 2.25
      vertex -5.97125 18 1.15116
      vertex -6.60566 18 2.25
    endloop
  endfacet
  facet normal 0.866026 1.70155e-09 0.5
    outer loop
      vertex -5.97125 18 1.15116
      vertex -6.60566 12.9644 2.25
      vertex -5.92719 12.9644 1.07485
    endloop
  endfacet
  facet normal -0 0 1
    outer loop
      vertex -5.875 18 0.984455
      vertex -4.125 12.9644 0.984455
      vertex -4.125 18 0.984455
    endloop
  endfacet
  facet normal 0 0 1
    outer loop
      vertex -4.125 12.9644 0.984455
      vertex -5.875 18 0.984455
      vertex -5.875 12.9644 0.984455
    endloop
  endfacet
  facet normal -0.866025 0 0.500001
    outer loop
      vertex -4.07281 12.9644 1.07485
      vertex -4.125 18 0.984455
      vertex -4.125 12.9644 0.984455
    endloop
  endfacet
  facet normal -0.866025 -1.31379e-08 0.5
    outer loop
      vertex -4.125 18 0.984455
      vertex -4.07281 12.9644 1.07485
      vertex -4.02875 18 1.15116
    endloop
  endfacet
  facet normal -0.866025 -9.61285e-10 0.5
    outer loop
      vertex -3.39434 12.9644 2.25
      vertex -4.02875 18 1.15116
      vertex -4.07281 12.9644 1.07485
    endloop
  endfacet
  facet normal -0.866025 0 0.5
    outer loop
      vertex -4.02875 18 1.15116
      vertex -3.39434 12.9644 2.25
      vertex -3.39434 18 2.25
    endloop
  endfacet
  facet normal 0.866025 -1.31379e-08 0.5
    outer loop
      vertex -5.92719 12.9644 1.07485
      vertex -5.875 18 0.984455
      vertex -5.97125 18 1.15116
    endloop
  endfacet
  facet normal 0.866025 0 0.500001
    outer loop
      vertex -5.875 18 0.984455
      vertex -5.92719 12.9644 1.07485
      vertex -5.875 12.9644 0.984455
    endloop
  endfacet
  facet normal 0.866025 -1.31379e-08 0.5
    outer loop
      vertex 4.07281 12.9644 1.07485
      vertex 4.125 18 0.984455
      vertex 4.02875 18 1.15116
    endloop
  endfacet
  facet normal 0.866025 0 0.500001
    outer loop
      vertex 4.125 18 0.984455
      vertex 4.07281 12.9644 1.07485
      vertex 4.125 12.9644 0.984455
    endloop
  endfacet
  facet normal 0.866026 -0 0.499999
    outer loop
      vertex 3.39434 12.9644 2.25
      vertex 4.02875 18 1.15116
      vertex 3.39434 18 2.25
    endloop
  endfacet
  facet normal 0.866026 9.69008e-09 0.499999
    outer loop
      vertex 4.02875 18 1.15116
      vertex 3.39434 12.9644 2.25
      vertex 4.07281 12.9644 1.07485
    endloop
  endfacet
  facet normal -0 0 1
    outer loop
      vertex 4.125 18 0.984455
      vertex 5.875 12.9644 0.984455
      vertex 5.875 18 0.984455
    endloop
  endfacet
  facet normal 0 0 1
    outer loop
      vertex 5.875 12.9644 0.984455
      vertex 4.125 18 0.984455
      vertex 4.125 12.9644 0.984455
    endloop
  endfacet
  facet normal -0.866025 0 0.500001
    outer loop
      vertex 5.92719 12.9644 1.07485
      vertex 5.875 18 0.984455
      vertex 5.875 12.9644 0.984455
    endloop
  endfacet
  facet normal -0.866025 -1.31379e-08 0.5
    outer loop
      vertex 5.875 18 0.984455
      vertex 5.92719 12.9644 1.07485
      vertex 5.97125 18 1.15116
    endloop
  endfacet
  facet normal -0.866026 1.70155e-09 0.5
    outer loop
      vertex 6.60566 12.9644 2.25
      vertex 5.97125 18 1.15116
      vertex 5.92719 12.9644 1.07485
    endloop
  endfacet
  facet normal -0.866026 0 0.5
    outer loop
      vertex 5.97125 18 1.15116
      vertex 6.60566 12.9644 2.25
      vertex 6.60566 18 2.25
    endloop
  endfacet
  facet normal 0.866025 2.05016e-08 0.5
    outer loop
      vertex -1.60566 12.9644 2.25
      vertex -0.97125 18 1.15116
      vertex -1.60566 18 2.25
    endloop
  endfacet
  facet normal 0.866025 9.28951e-09 0.5
    outer loop
      vertex -0.97125 18 1.15116
      vertex -1.60566 12.9644 2.25
      vertex -0.927188 12.9644 1.07485
    endloop
  endfacet
  facet normal -0 0 1
    outer loop
      vertex -0.875 18 0.984455
      vertex 0.875 12.9644 0.984455
      vertex 0.875 18 0.984455
    endloop
  endfacet
  facet normal 0 0 1
    outer loop
      vertex 0.875 12.9644 0.984455
      vertex -0.875 18 0.984455
      vertex -0.875 12.9644 0.984455
    endloop
  endfacet
  facet normal -0.866025 0 0.5
    outer loop
      vertex 0.927188 12.9644 1.07485
      vertex 0.875 18 0.984455
      vertex 0.875 12.9644 0.984455
    endloop
  endfacet
  facet normal -0.866025 1.80554e-09 0.5
    outer loop
      vertex 0.875 18 0.984455
      vertex 0.927188 12.9644 1.07485
      vertex 0.97125 18 1.15116
    endloop
  endfacet
  facet normal -0.866025 9.28951e-09 0.5
    outer loop
      vertex 1.60566 12.9644 2.25
      vertex 0.97125 18 1.15116
      vertex 0.927188 12.9644 1.07485
    endloop
  endfacet
  facet normal -0.866025 2.05016e-08 0.5
    outer loop
      vertex 0.97125 18 1.15116
      vertex 1.60566 12.9644 2.25
      vertex 1.60566 18 2.25
    endloop
  endfacet
  facet normal 0.866025 1.80554e-09 0.5
    outer loop
      vertex -0.927188 12.9644 1.07485
      vertex -0.875 18 0.984455
      vertex -0.97125 18 1.15116
    endloop
  endfacet
  facet normal 0.866025 0 0.5
    outer loop
      vertex -0.875 18 0.984455
      vertex -0.927188 12.9644 1.07485
      vertex -0.875 12.9644 0.984455
    endloop
  endfacet
  facet normal -0.923879 0 -0.382684
    outer loop
      vertex 2.25 0 14
      vertex 1.62618 4 15.506
      vertex 2.25 4 14
    endloop
  endfacet
  facet normal -0.923879 -4.20994e-08 -0.382684
    outer loop
      vertex 1.59099 0 15.591
      vertex 1.62618 4 15.506
      vertex 2.25 0 14
    endloop
  endfacet
  facet normal -0.92388 0 -0.382682
    outer loop
      vertex 1.62618 4 15.506
      vertex 1.59099 0 15.591
      vertex 1.59099 4 15.591
    endloop
  endfacet
  facet normal -0.382678 0 -0.923882
    outer loop
      vertex 1.59099 0 15.591
      vertex 1.55303 4 15.6067
      vertex 1.59099 4 15.591
    endloop
  endfacet
  facet normal -0.382683 -5.94623e-08 -0.92388
    outer loop
      vertex 1.59099 0 15.591
      vertex 0.119847 4 16.2004
      vertex 1.55303 4 15.6067
    endloop
  endfacet
  facet normal -0.382684 -1.11851e-07 -0.923879
    outer loop
      vertex 0 0 16.25
      vertex 0.119847 4 16.2004
      vertex 1.59099 0 15.591
    endloop
  endfacet
  facet normal -0.382687 0 -0.923878
    outer loop
      vertex 0.119847 4 16.2004
      vertex 0 0 16.25
      vertex 0 4 16.25
    endloop
  endfacet
  facet normal 0.92388 0 -0.382683
    outer loop
      vertex -1.59099 0 15.591
      vertex -1.63195 4 15.4921
      vertex -1.59099 4 15.591
    endloop
  endfacet
  facet normal 0.923879 -1.2934e-08 -0.382684
    outer loop
      vertex -1.63195 4 15.4921
      vertex -1.59099 0 15.591
      vertex -2.20083 4 14.1187
    endloop
  endfacet
  facet normal 0.923879 4.03659e-08 -0.382684
    outer loop
      vertex -2.25 0 14
      vertex -2.20083 4 14.1187
      vertex -1.59099 0 15.591
    endloop
  endfacet
  facet normal 0.92388 0 -0.382682
    outer loop
      vertex -2.20083 4 14.1187
      vertex -2.25 0 14
      vertex -2.25 4 14
    endloop
  endfacet
  facet normal 0 1 -0
    outer loop
      vertex 2.05548 4 13.0848
      vertex 1.62618 4 12.494
      vertex 2.25 4 14
    endloop
  endfacet
  facet normal 0 1 0
    outer loop
      vertex 2.25 4 14
      vertex 1.62618 4 15.506
      vertex 2.05548 4 14.9152
    endloop
  endfacet
  facet normal 0 1 0
    outer loop
      vertex -0.0713351 4 16.2205
      vertex -1.125 4 15.9486
      vertex -0.235188 4 16.2377
    endloop
  endfacet
  facet normal -0 1 0
    outer loop
      vertex -1.125 4 15.9486
      vertex -0.0713351 4 16.2205
      vertex -1.46344 4 15.6438
    endloop
  endfacet
  facet normal 0 1 0
    outer loop
      vertex -1.63196 4 12.5079
      vertex -2.20083 4 13.5322
      vertex -2.20083 4 13.8813
    endloop
  endfacet
  facet normal 0 1 0
    outer loop
      vertex -2.20083 4 13.5322
      vertex -1.63196 4 12.5079
      vertex -1.82029 4 12.6775
    endloop
  endfacet
  facet normal 0 1 0
    outer loop
      vertex -0.0713351 4 11.7795
      vertex -1.125 4 12.0514
      vertex -1.46344 4 12.3562
    endloop
  endfacet
  facet normal 0 1 0
    outer loop
      vertex -1.125 4 12.0514
      vertex -0.0713351 4 11.7795
      vertex -0.235188 4 11.7623
    endloop
  endfacet
  facet normal 0 1 0
    outer loop
      vertex -1.63195 4 15.4921
      vertex -2.20083 4 14.4678
      vertex -1.82029 4 15.3225
    endloop
  endfacet
  facet normal -0 1 0
    outer loop
      vertex -2.20083 4 14.4678
      vertex -1.63195 4 15.4921
      vertex -2.20083 4 14.1187
    endloop
  endfacet
  facet normal 0 1 0
    outer loop
      vertex 0.695288 4 11.8601
      vertex 1.55303 4 12.3933
      vertex 1.50554 4 12.3279
    endloop
  endfacet
  facet normal 0 1 0
    outer loop
      vertex 1.55303 4 12.3933
      vertex 0.695288 4 11.8601
      vertex 0.119847 4 11.7996
    endloop
  endfacet
  facet normal 0 1 0
    outer loop
      vertex 1.55303 4 15.6067
      vertex 0.695288 4 16.1399
      vertex 1.50554 4 15.6721
    endloop
  endfacet
  facet normal 0 1 0
    outer loop
      vertex 0.695288 4 16.1399
      vertex 1.55303 4 15.6067
      vertex 0.119847 4 16.2004
    endloop
  endfacet
  facet normal 0 -1 0
    outer loop
      vertex 1.62618 4 15.506
      vertex 1.59099 4 15.591
      vertex 1.55303 4 15.6067
    endloop
  endfacet
  facet normal 0 -1 0
    outer loop
      vertex -2.20083 4 13.8813
      vertex -2.20083 4 14.1187
      vertex -2.25 4 14
    endloop
  endfacet
  facet normal 0 -1 0
    outer loop
      vertex 0.119847 4 16.2004
      vertex 0 4 16.25
      vertex -0.0713351 4 16.2205
    endloop
  endfacet
  facet normal 0 -1 0
    outer loop
      vertex -1.46344 4 15.6438
      vertex -1.59099 4 15.591
      vertex -1.63195 4 15.4921
    endloop
  endfacet
  facet normal 0 -1 0
    outer loop
      vertex 0 4 11.75
      vertex 0.119847 4 11.7996
      vertex -0.0713351 4 11.7795
    endloop
  endfacet
  facet normal 0 -1 0
    outer loop
      vertex -1.59099 4 12.409
      vertex -1.46344 4 12.3562
      vertex -1.63196 4 12.5079
    endloop
  endfacet
  facet normal -0 -1 0
    outer loop
      vertex 1.59099 4 12.409
      vertex 1.62618 4 12.494
      vertex 1.55303 4 12.3933
    endloop
  endfacet
  facet normal 0.92388 -0 0.382682
    outer loop
      vertex -2.25 0 14
      vertex -2.20083 4 13.8813
      vertex -2.25 4 14
    endloop
  endfacet
  facet normal 0.923879 4.22835e-08 0.382684
    outer loop
      vertex -2.20083 4 13.8813
      vertex -2.25 0 14
      vertex -1.63196 4 12.5079
    endloop
  endfacet
  facet normal 0.923879 1.81801e-08 0.382684
    outer loop
      vertex -1.59099 0 12.409
      vertex -1.63196 4 12.5079
      vertex -2.25 0 14
    endloop
  endfacet
  facet normal 0.923879 0 0.382684
    outer loop
      vertex -1.63196 4 12.5079
      vertex -1.59099 0 12.409
      vertex -1.59099 4 12.409
    endloop
  endfacet
  facet normal -0.382685 0 0.923879
    outer loop
      vertex 0.0636396 0 11.7764
      vertex 0 4 11.75
      vertex 0 0 11.75
    endloop
  endfacet
  facet normal 0.38268 8.85645e-08 0.923881
    outer loop
      vertex -0.0713351 4 11.7795
      vertex -0.0636396 0 11.7764
      vertex 0 4 11.75
    endloop
  endfacet
  facet normal 0.382684 9.65555e-08 0.923879
    outer loop
      vertex -1.46344 4 12.3562
      vertex -0.0636396 0 11.7764
      vertex -0.0713351 4 11.7795
    endloop
  endfacet
  facet normal 0.382683 -0 0.92388
    outer loop
      vertex -1.59099 0 12.409
      vertex -1.46344 4 12.3562
      vertex -1.59099 4 12.409
    endloop
  endfacet
  facet normal 0.382684 -1.2646e-08 0.92388
    outer loop
      vertex -1.46344 4 12.3562
      vertex -1.59099 0 12.409
      vertex -0.0636396 0 11.7764
    endloop
  endfacet
  facet normal 0.382691 0 -0.923876
    outer loop
      vertex 0 0 16.25
      vertex -0.0713351 4 16.2205
      vertex 0 4 16.25
    endloop
  endfacet
  facet normal 0.382683 -1.61573e-07 -0.92388
    outer loop
      vertex 0 0 16.25
      vertex -1.46344 4 15.6438
      vertex -0.0713351 4 16.2205
    endloop
  endfacet
  facet normal 0.382684 6.49878e-08 -0.923879
    outer loop
      vertex -1.59099 0 15.591
      vertex -1.46344 4 15.6438
      vertex 0 0 16.25
    endloop
  endfacet
  facet normal 0.382685 0 -0.923879
    outer loop
      vertex -1.46344 4 15.6438
      vertex -1.59099 0 15.591
      vertex -1.59099 4 15.591
    endloop
  endfacet
  facet normal 0.382685 -0 0.923879
    outer loop
      vertex 0 0 11.75
      vertex 0 4 11.75
      vertex -0.0636396 0 11.7764
    endloop
  endfacet
  facet normal -0.382678 0 0.923882
    outer loop
      vertex 1.55303 4 12.3933
      vertex 1.59099 0 12.409
      vertex 1.59099 4 12.409
    endloop
  endfacet
  facet normal -0.382684 -6.52961e-08 0.923879
    outer loop
      vertex 0.119847 4 11.7996
      vertex 1.59099 0 12.409
      vertex 1.55303 4 12.3933
    endloop
  endfacet
  facet normal -0.382684 1.33796e-07 0.92388
    outer loop
      vertex 0.119847 4 11.7996
      vertex 0.0636396 0 11.7764
      vertex 1.59099 0 12.409
    endloop
  endfacet
  facet normal -0.38268 8.39184e-08 0.923881
    outer loop
      vertex 0.0636396 0 11.7764
      vertex 0.119847 4 11.7996
      vertex 0 4 11.75
    endloop
  endfacet
  facet normal -0.92388 0 0.382682
    outer loop
      vertex 1.59099 0 12.409
      vertex 1.62618 4 12.494
      vertex 1.59099 4 12.409
    endloop
  endfacet
  facet normal -0.923879 -4.20994e-08 0.382684
    outer loop
      vertex 2.25 0 14
      vertex 1.62618 4 12.494
      vertex 1.59099 0 12.409
    endloop
  endfacet
  facet normal -0.923879 0 0.382684
    outer loop
      vertex 1.62618 4 12.494
      vertex 2.25 0 14
      vertex 2.25 4 14
    endloop
  endfacet
  facet normal -0.788679 0.591509 0.167639
    outer loop
      vertex 2.05548 4 13.0848
      vertex 3.75 6 14
      vertex 3.4258 6 12.4747
    endloop
  endfacet
  facet normal -0.788679 0.591509 0.167639
    outer loop
      vertex 3.75 6 14
      vertex 2.05548 4 13.0848
      vertex 2.25 4 14
    endloop
  endfacet
  facet normal -0.0842822 0.591509 -0.801881
    outer loop
      vertex 0.848655 6 17.5991
      vertex -0.235188 4 16.2377
      vertex -0.391981 6 17.7295
    endloop
  endfacet
  facet normal -0.788679 0.591509 -0.167639
    outer loop
      vertex 2.05548 4 14.9152
      vertex 3.49064 6 15.2202
      vertex 2.25 4 14
    endloop
  endfacet
  facet normal -0.788679 0.591509 -0.167639
    outer loop
      vertex 3.49064 6 15.2202
      vertex 2.05548 4 14.9152
      vertex 3.4258 6 15.5253
    endloop
  endfacet
  facet normal -0.652309 0.591509 0.47393
    outer loop
      vertex 3.4258 6 12.4747
      vertex 2.69255 6 11.4655
      vertex 2.05548 4 13.0848
    endloop
  endfacet
  facet normal 0.249161 0.591509 0.766835
    outer loop
      vertex -0.688585 6 10.3669
      vertex -0.235188 4 11.7623
      vertex -0.391981 6 10.2705
    endloop
  endfacet
  facet normal 0.24916 0.591509 0.766835
    outer loop
      vertex -0.235188 4 11.7623
      vertex -0.688585 6 10.3669
      vertex -1.125 4 12.0514
    endloop
  endfacet
  facet normal -0.652309 0.591509 -0.47393
    outer loop
      vertex 2.69255 6 16.5345
      vertex 3.4258 6 15.5253
      vertex 2.05548 4 14.9152
    endloop
  endfacet
  facet normal -0.403149 0.591509 -0.698275
    outer loop
      vertex 2.50924 6 16.7868
      vertex 1.50554 4 15.6721
      vertex 1.4289 6 17.4105
    endloop
  endfacet
  facet normal -0.788679 0.591509 -0.167639
    outer loop
      vertex 3.49064 6 15.2202
      vertex 3.75 6 14
      vertex 2.25 4 14
    endloop
  endfacet
  facet normal 0.24916 0.591509 -0.766835
    outer loop
      vertex -0.688585 6 17.6331
      vertex -1.125 4 15.9486
      vertex -1.875 6 17.2476
    endloop
  endfacet
  facet normal 0.73659 0.591509 0.327951
    outer loop
      vertex -1.82029 4 12.6775
      vertex -3.66805 6 13.2203
      vertex -2.20083 4 13.5322
    endloop
  endfacet
  facet normal 0.73659 0.591509 0.327951
    outer loop
      vertex -3.66805 6 13.2203
      vertex -1.82029 4 12.6775
      vertex -3.03381 6 11.7958
    endloop
  endfacet
  facet normal 0.806298 0.591509 -0
    outer loop
      vertex -2.20083 4 14.1187
      vertex -3.66805 6 14.7797
      vertex -2.20083 4 14.4678
    endloop
  endfacet
  facet normal 0.806298 0.591509 0
    outer loop
      vertex -3.66805 6 14.7797
      vertex -2.20083 4 14.1187
      vertex -3.66805 6 13.2203
    endloop
  endfacet
  facet normal 0.806298 0.591509 -0
    outer loop
      vertex -2.20083 4 13.8813
      vertex -3.66805 6 13.2203
      vertex -2.20083 4 14.1187
    endloop
  endfacet
  facet normal 0.806298 0.591509 0
    outer loop
      vertex -3.66805 6 13.2203
      vertex -2.20083 4 13.8813
      vertex -2.20083 4 13.5322
    endloop
  endfacet
  facet normal -0.0842798 0.591509 0.801881
    outer loop
      vertex 0.848655 6 10.4009
      vertex 0.695288 4 11.8601
      vertex 1.15881 6 10.4335
    endloop
  endfacet
  facet normal -0.0842821 0.591509 0.801881
    outer loop
      vertex 0.848655 6 10.4009
      vertex 0.119847 4 11.7996
      vertex 0.695288 4 11.8601
    endloop
  endfacet
  facet normal -0.0842808 0.591509 0.801882
    outer loop
      vertex 0.848655 6 10.4009
      vertex -0.0713351 4 11.7795
      vertex 0.119847 4 11.7996
    endloop
  endfacet
  facet normal -0.08428 0.591509 0.801882
    outer loop
      vertex -0.0713351 4 11.7795
      vertex 0.848655 6 10.4009
      vertex -0.235188 4 11.7623
    endloop
  endfacet
  facet normal -0.0842816 0.591509 0.801881
    outer loop
      vertex -0.235188 4 11.7623
      vertex 0.848655 6 10.4009
      vertex -0.391981 6 10.2705
    endloop
  endfacet
  facet normal -0.403149 0.591509 0.698275
    outer loop
      vertex 1.50554 4 12.3279
      vertex 2.50924 6 11.2132
      vertex 1.4289 6 10.5895
    endloop
  endfacet
  facet normal -0.652309 0.591509 0.473931
    outer loop
      vertex 1.50554 4 12.3279
      vertex 2.69255 6 11.4655
      vertex 2.50924 6 11.2132
    endloop
  endfacet
  facet normal -0.65231 0.591509 0.473929
    outer loop
      vertex 1.55303 4 12.3933
      vertex 2.69255 6 11.4655
      vertex 1.50554 4 12.3279
    endloop
  endfacet
  facet normal -0.652309 0.591509 0.47393
    outer loop
      vertex 1.62618 4 12.494
      vertex 2.69255 6 11.4655
      vertex 1.55303 4 12.3933
    endloop
  endfacet
  facet normal -0.652309 0.591509 0.473931
    outer loop
      vertex 2.69255 6 11.4655
      vertex 1.62618 4 12.494
      vertex 2.05548 4 13.0848
    endloop
  endfacet
  facet normal -0.652309 0.591509 -0.473931
    outer loop
      vertex 1.62618 4 15.506
      vertex 2.69255 6 16.5345
      vertex 2.05548 4 14.9152
    endloop
  endfacet
  facet normal -0.652309 0.591509 -0.47393
    outer loop
      vertex 1.55303 4 15.6067
      vertex 2.69255 6 16.5345
      vertex 1.62618 4 15.506
    endloop
  endfacet
  facet normal -0.65231 0.591509 -0.473929
    outer loop
      vertex 1.50554 4 15.6721
      vertex 2.69255 6 16.5345
      vertex 1.55303 4 15.6067
    endloop
  endfacet
  facet normal -0.652309 0.591509 -0.47393
    outer loop
      vertex 2.69255 6 16.5345
      vertex 1.50554 4 15.6721
      vertex 2.50924 6 16.7868
    endloop
  endfacet
  facet normal -0.403148 0.591509 -0.698275
    outer loop
      vertex 1.50554 4 15.6721
      vertex 1.15881 6 17.5665
      vertex 1.4289 6 17.4105
    endloop
  endfacet
  facet normal -0.40315 0.591509 -0.698275
    outer loop
      vertex 1.15881 6 17.5665
      vertex 1.50554 4 15.6721
      vertex 0.695288 4 16.1399
    endloop
  endfacet
  facet normal -0.0842799 0.591509 -0.801882
    outer loop
      vertex 0.695288 4 16.1399
      vertex 0.848655 6 17.5991
      vertex 1.15881 6 17.5665
    endloop
  endfacet
  facet normal -0.0842795 0.591509 -0.801882
    outer loop
      vertex 0.119847 4 16.2004
      vertex 0.848655 6 17.5991
      vertex 0.695288 4 16.1399
    endloop
  endfacet
  facet normal -0.0842808 0.591509 -0.801881
    outer loop
      vertex -0.0713351 4 16.2205
      vertex 0.848655 6 17.5991
      vertex 0.119847 4 16.2004
    endloop
  endfacet
  facet normal -0.0842891 0.591511 -0.801879
    outer loop
      vertex 0.848655 6 17.5991
      vertex -0.0713351 4 16.2205
      vertex -0.235188 4 16.2377
    endloop
  endfacet
  facet normal 0.539519 0.591509 -0.599196
    outer loop
      vertex -1.875 6 17.2476
      vertex -1.125 4 15.9486
      vertex -2.80205 6 16.4129
    endloop
  endfacet
  facet normal 0.73659 0.591509 -0.327951
    outer loop
      vertex -3.16066 6 15.9193
      vertex -2.20083 4 14.4678
      vertex -3.66805 6 14.7797
    endloop
  endfacet
  facet normal 0.73659 0.591509 -0.32795
    outer loop
      vertex -1.82029 4 15.3225
      vertex -3.16066 6 15.9193
      vertex -3.03381 6 16.2042
    endloop
  endfacet
  facet normal 0.73659 0.591509 -0.327951
    outer loop
      vertex -3.16066 6 15.9193
      vertex -1.82029 4 15.3225
      vertex -2.20083 4 14.4678
    endloop
  endfacet
  facet normal 0.539519 0.591509 0.599197
    outer loop
      vertex -1.875 6 10.7524
      vertex -1.46344 4 12.3562
      vertex -1.125 4 12.0514
    endloop
  endfacet
  facet normal 0.539518 0.591509 0.599197
    outer loop
      vertex -1.46344 4 12.3562
      vertex -1.875 6 10.7524
      vertex -1.63196 4 12.5079
    endloop
  endfacet
  facet normal 0.539519 0.591509 0.599196
    outer loop
      vertex -1.63196 4 12.5079
      vertex -1.875 6 10.7524
      vertex -1.82029 4 12.6775
    endloop
  endfacet
  facet normal 0.539519 0.591509 0.599197
    outer loop
      vertex -1.82029 4 12.6775
      vertex -1.875 6 10.7524
      vertex -3.03381 6 11.7958
    endloop
  endfacet
  facet normal -0.40315 0.591509 0.698275
    outer loop
      vertex 1.15881 6 10.4335
      vertex 1.50554 4 12.3279
      vertex 1.4289 6 10.5895
    endloop
  endfacet
  facet normal -0.403149 0.591509 0.698275
    outer loop
      vertex 1.50554 4 12.3279
      vertex 1.15881 6 10.4335
      vertex 0.695288 4 11.8601
    endloop
  endfacet
  facet normal 0.24916 0.591509 -0.766835
    outer loop
      vertex -0.235188 4 16.2377
      vertex -0.688585 6 17.6331
      vertex -0.391981 6 17.7295
    endloop
  endfacet
  facet normal 0.24916 0.591509 -0.766835
    outer loop
      vertex -0.688585 6 17.6331
      vertex -0.235188 4 16.2377
      vertex -1.125 4 15.9486
    endloop
  endfacet
  facet normal 0.24916 0.591509 0.766835
    outer loop
      vertex -1.125 4 12.0514
      vertex -0.688585 6 10.3669
      vertex -1.875 6 10.7524
    endloop
  endfacet
  facet normal 0.53952 0.591509 -0.599195
    outer loop
      vertex -2.80205 6 16.4129
      vertex -1.46344 4 15.6438
      vertex -1.63195 4 15.4921
    endloop
  endfacet
  facet normal 0.539519 0.591509 -0.599196
    outer loop
      vertex -2.80205 6 16.4129
      vertex -1.63195 4 15.4921
      vertex -1.82029 4 15.3225
    endloop
  endfacet
  facet normal 0.539519 0.591509 -0.599196
    outer loop
      vertex -1.46344 4 15.6438
      vertex -2.80205 6 16.4129
      vertex -1.125 4 15.9486
    endloop
  endfacet
  facet normal 0.539518 0.591509 -0.599197
    outer loop
      vertex -2.80205 6 16.4129
      vertex -1.82029 4 15.3225
      vertex -3.03381 6 16.2042
    endloop
  endfacet
  facet normal -0.923879 0 -0.382684
    outer loop
      vertex 2.25 0 -14
      vertex 1.62618 4 -12.494
      vertex 2.25 4 -14
    endloop
  endfacet
  facet normal -0.923879 -4.20994e-08 -0.382684
    outer loop
      vertex 1.59099 0 -12.409
      vertex 1.62618 4 -12.494
      vertex 2.25 0 -14
    endloop
  endfacet
  facet normal -0.92388 0 -0.382682
    outer loop
      vertex 1.62618 4 -12.494
      vertex 1.59099 0 -12.409
      vertex 1.59099 4 -12.409
    endloop
  endfacet
  facet normal -0.382678 0 -0.923882
    outer loop
      vertex 1.59099 0 -12.409
      vertex 1.55303 4 -12.3933
      vertex 1.59099 4 -12.409
    endloop
  endfacet
  facet normal -0.382684 -6.52961e-08 -0.923879
    outer loop
      vertex 1.59099 0 -12.409
      vertex 0.119847 4 -11.7996
      vertex 1.55303 4 -12.3933
    endloop
  endfacet
  facet normal -0.382684 1.08419e-07 -0.923879
    outer loop
      vertex 0 0 -11.75
      vertex 0.119847 4 -11.7996
      vertex 1.59099 0 -12.409
    endloop
  endfacet
  facet normal -0.38268 0 -0.923881
    outer loop
      vertex 0.119847 4 -11.7996
      vertex 0 0 -11.75
      vertex 0 4 -11.75
    endloop
  endfacet
  facet normal 0.92388 0 -0.382683
    outer loop
      vertex -1.59099 0 -12.409
      vertex -1.63195 4 -12.5079
      vertex -1.59099 4 -12.409
    endloop
  endfacet
  facet normal 0.923879 -1.2934e-08 -0.382684
    outer loop
      vertex -1.63195 4 -12.5079
      vertex -1.59099 0 -12.409
      vertex -2.20083 4 -13.8813
    endloop
  endfacet
  facet normal 0.923879 4.03659e-08 -0.382684
    outer loop
      vertex -2.25 0 -14
      vertex -2.20083 4 -13.8813
      vertex -1.59099 0 -12.409
    endloop
  endfacet
  facet normal 0.92388 0 -0.382682
    outer loop
      vertex -2.20083 4 -13.8813
      vertex -2.25 0 -14
      vertex -2.25 4 -14
    endloop
  endfacet
  facet normal 0 1 -0
    outer loop
      vertex 2.05548 4 -14.9152
      vertex 1.62618 4 -15.506
      vertex 2.25 4 -14
    endloop
  endfacet
  facet normal 0 1 0
    outer loop
      vertex 2.25 4 -14
      vertex 1.62618 4 -12.494
      vertex 2.05548 4 -13.0848
    endloop
  endfacet
  facet normal 0 1 0
    outer loop
      vertex -0.0713351 4 -11.7795
      vertex -1.125 4 -12.0514
      vertex -0.235188 4 -11.7623
    endloop
  endfacet
  facet normal -0 1 0
    outer loop
      vertex -1.125 4 -12.0514
      vertex -0.0713351 4 -11.7795
      vertex -1.46344 4 -12.3562
    endloop
  endfacet
  facet normal 0 1 0
    outer loop
      vertex -1.63196 4 -15.4921
      vertex -2.20083 4 -14.4678
      vertex -2.20083 4 -14.1187
    endloop
  endfacet
  facet normal 0 1 0
    outer loop
      vertex -2.20083 4 -14.4678
      vertex -1.63196 4 -15.4921
      vertex -1.82029 4 -15.3225
    endloop
  endfacet
  facet normal 0 1 0
    outer loop
      vertex -0.0713351 4 -16.2205
      vertex -1.125 4 -15.9486
      vertex -1.46344 4 -15.6438
    endloop
  endfacet
  facet normal 0 1 0
    outer loop
      vertex -1.125 4 -15.9486
      vertex -0.0713351 4 -16.2205
      vertex -0.235188 4 -16.2377
    endloop
  endfacet
  facet normal 0 1 0
    outer loop
      vertex -1.63195 4 -12.5079
      vertex -2.20083 4 -13.5322
      vertex -1.82029 4 -12.6775
    endloop
  endfacet
  facet normal -0 1 0
    outer loop
      vertex -2.20083 4 -13.5322
      vertex -1.63195 4 -12.5079
      vertex -2.20083 4 -13.8813
    endloop
  endfacet
  facet normal 0 1 0
    outer loop
      vertex 0.695288 4 -16.1399
      vertex 1.55303 4 -15.6067
      vertex 1.50554 4 -15.6721
    endloop
  endfacet
  facet normal 0 1 0
    outer loop
      vertex 1.55303 4 -15.6067
      vertex 0.695288 4 -16.1399
      vertex 0.119847 4 -16.2004
    endloop
  endfacet
  facet normal 0 1 0
    outer loop
      vertex 1.55303 4 -12.3933
      vertex 0.695288 4 -11.8601
      vertex 1.50554 4 -12.3279
    endloop
  endfacet
  facet normal 0 1 0
    outer loop
      vertex 0.695288 4 -11.8601
      vertex 1.55303 4 -12.3933
      vertex 0.119847 4 -11.7996
    endloop
  endfacet
  facet normal 0 -1 0
    outer loop
      vertex 1.62618 4 -12.494
      vertex 1.59099 4 -12.409
      vertex 1.55303 4 -12.3933
    endloop
  endfacet
  facet normal 0 -1 0
    outer loop
      vertex -2.20083 4 -14.1187
      vertex -2.20083 4 -13.8813
      vertex -2.25 4 -14
    endloop
  endfacet
  facet normal 0 -1 0
    outer loop
      vertex 0.119847 4 -11.7996
      vertex 0 4 -11.75
      vertex -0.0713351 4 -11.7795
    endloop
  endfacet
  facet normal 0 -1 0
    outer loop
      vertex -1.46344 4 -12.3562
      vertex -1.59099 4 -12.409
      vertex -1.63195 4 -12.5079
    endloop
  endfacet
  facet normal 0 -1 0
    outer loop
      vertex 0 4 -16.25
      vertex 0.119847 4 -16.2004
      vertex -0.0713351 4 -16.2205
    endloop
  endfacet
  facet normal 0 -1 0
    outer loop
      vertex -1.59099 4 -15.591
      vertex -1.46344 4 -15.6438
      vertex -1.63196 4 -15.4921
    endloop
  endfacet
  facet normal -0 -1 0
    outer loop
      vertex 1.59099 4 -15.591
      vertex 1.62618 4 -15.506
      vertex 1.55303 4 -15.6067
    endloop
  endfacet
  facet normal 0.92388 -0 0.382682
    outer loop
      vertex -2.25 0 -14
      vertex -2.20083 4 -14.1187
      vertex -2.25 4 -14
    endloop
  endfacet
  facet normal 0.923879 4.22835e-08 0.382684
    outer loop
      vertex -2.20083 4 -14.1187
      vertex -2.25 0 -14
      vertex -1.63196 4 -15.4921
    endloop
  endfacet
  facet normal 0.923879 1.81801e-08 0.382684
    outer loop
      vertex -1.59099 0 -15.591
      vertex -1.63196 4 -15.4921
      vertex -2.25 0 -14
    endloop
  endfacet
  facet normal 0.923879 0 0.382684
    outer loop
      vertex -1.63196 4 -15.4921
      vertex -1.59099 0 -15.591
      vertex -1.59099 4 -15.591
    endloop
  endfacet
  facet normal -0.382673 0 0.923884
    outer loop
      vertex 0.0636396 0 -16.2236
      vertex 0 4 -16.25
      vertex 0 0 -16.25
    endloop
  endfacet
  facet normal 0.382691 -3.28212e-07 0.923876
    outer loop
      vertex -0.0713351 4 -16.2205
      vertex -0.0636396 0 -16.2236
      vertex 0 4 -16.25
    endloop
  endfacet
  facet normal 0.382683 -3.45202e-07 0.92388
    outer loop
      vertex -1.46344 4 -15.6438
      vertex -0.0636396 0 -16.2236
      vertex -0.0713351 4 -16.2205
    endloop
  endfacet
  facet normal 0.382683 -0 0.92388
    outer loop
      vertex -1.59099 0 -15.591
      vertex -1.46344 4 -15.6438
      vertex -1.59099 4 -15.591
    endloop
  endfacet
  facet normal 0.382684 -3.10408e-08 0.923879
    outer loop
      vertex -1.46344 4 -15.6438
      vertex -1.59099 0 -15.591
      vertex -0.0636396 0 -16.2236
    endloop
  endfacet
  facet normal 0.38268 0 -0.923881
    outer loop
      vertex 0 0 -11.75
      vertex -0.0713351 4 -11.7795
      vertex 0 4 -11.75
    endloop
  endfacet
  facet normal 0.382684 6.99846e-08 -0.923879
    outer loop
      vertex 0 0 -11.75
      vertex -1.46344 4 -12.3562
      vertex -0.0713351 4 -11.7795
    endloop
  endfacet
  facet normal 0.382684 6.49878e-08 -0.923879
    outer loop
      vertex -1.59099 0 -12.409
      vertex -1.46344 4 -12.3562
      vertex 0 0 -11.75
    endloop
  endfacet
  facet normal 0.382685 0 -0.923879
    outer loop
      vertex -1.46344 4 -12.3562
      vertex -1.59099 0 -12.409
      vertex -1.59099 4 -12.409
    endloop
  endfacet
  facet normal 0.382673 -0 0.923884
    outer loop
      vertex 0 0 -16.25
      vertex 0 4 -16.25
      vertex -0.0636396 0 -16.2236
    endloop
  endfacet
  facet normal -0.382678 0 0.923882
    outer loop
      vertex 1.55303 4 -15.6067
      vertex 1.59099 0 -15.591
      vertex 1.59099 4 -15.591
    endloop
  endfacet
  facet normal -0.382683 -5.94623e-08 0.92388
    outer loop
      vertex 0.119847 4 -16.2004
      vertex 1.59099 0 -15.591
      vertex 1.55303 4 -15.6067
    endloop
  endfacet
  facet normal -0.382684 -2.98638e-07 0.923879
    outer loop
      vertex 0.119847 4 -16.2004
      vertex 0.0636396 0 -16.2236
      vertex 1.59099 0 -15.591
    endloop
  endfacet
  facet normal -0.382687 -2.53317e-07 0.923878
    outer loop
      vertex 0.0636396 0 -16.2236
      vertex 0.119847 4 -16.2004
      vertex 0 4 -16.25
    endloop
  endfacet
  facet normal -0.92388 0 0.382682
    outer loop
      vertex 1.59099 0 -15.591
      vertex 1.62618 4 -15.506
      vertex 1.59099 4 -15.591
    endloop
  endfacet
  facet normal -0.923879 -4.20994e-08 0.382684
    outer loop
      vertex 2.25 0 -14
      vertex 1.62618 4 -15.506
      vertex 1.59099 0 -15.591
    endloop
  endfacet
  facet normal -0.923879 0 0.382684
    outer loop
      vertex 1.62618 4 -15.506
      vertex 2.25 0 -14
      vertex 2.25 4 -14
    endloop
  endfacet
  facet normal -0.788679 0.591509 0.167639
    outer loop
      vertex 2.05548 4 -14.9152
      vertex 4.5 7 -14
      vertex 4.11095 7 -15.8303
    endloop
  endfacet
  facet normal -0.788679 0.591509 0.167639
    outer loop
      vertex 4.5 7 -14
      vertex 2.05548 4 -14.9152
      vertex 2.25 4 -14
    endloop
  endfacet
  facet normal -0.0842814 0.591509 -0.801881
    outer loop
      vertex 1.39058 7 -9.72025
      vertex -0.235188 4 -11.7623
      vertex -0.470378 7 -9.52465
    endloop
  endfacet
  facet normal -0.788679 0.591509 -0.167639
    outer loop
      vertex 4.11095 7 -12.1697
      vertex 2.25 4 -14
      vertex 2.05548 4 -13.0848
    endloop
  endfacet
  facet normal -0.652309 0.591509 0.47393
    outer loop
      vertex 4.11095 7 -15.8303
      vertex 3.01109 7 -17.3442
      vertex 2.05548 4 -14.9152
    endloop
  endfacet
  facet normal 0.249161 0.591509 0.766835
    outer loop
      vertex -0.235188 4 -16.2377
      vertex -0.470378 7 -18.4753
      vertex -1.125 4 -15.9486
    endloop
  endfacet
  facet normal -0.652309 0.591509 -0.47393
    outer loop
      vertex 3.01109 7 -10.6558
      vertex 4.11095 7 -12.1697
      vertex 2.05548 4 -13.0848
    endloop
  endfacet
  facet normal -0.403149 0.591509 -0.698275
    outer loop
      vertex 3.01109 7 -10.6558
      vertex 1.50554 4 -12.3279
      vertex 1.39058 7 -9.72025
    endloop
  endfacet
  facet normal -0.788679 0.591509 -0.167639
    outer loop
      vertex 4.11095 7 -12.1697
      vertex 4.5 7 -14
      vertex 2.25 4 -14
    endloop
  endfacet
  facet normal 0.24916 0.591509 -0.766835
    outer loop
      vertex -0.470378 7 -9.52465
      vertex -1.125 4 -12.0514
      vertex -2.25 7 -10.1029
    endloop
  endfacet
  facet normal 0.73659 0.591509 0.327951
    outer loop
      vertex -1.82029 4 -15.3225
      vertex -4.40166 7 -14.9356
      vertex -2.20083 4 -14.4678
    endloop
  endfacet
  facet normal 0.73659 0.591509 0.327951
    outer loop
      vertex -4.40166 7 -14.9356
      vertex -1.82029 4 -15.3225
      vertex -3.64058 7 -16.645
    endloop
  endfacet
  facet normal 0.806298 0.591509 -0
    outer loop
      vertex -2.20083 4 -13.8813
      vertex -4.40166 7 -13.0644
      vertex -2.20083 4 -13.5322
    endloop
  endfacet
  facet normal 0.806298 0.591509 0
    outer loop
      vertex -4.40166 7 -13.0644
      vertex -2.20083 4 -13.8813
      vertex -4.40166 7 -14.9356
    endloop
  endfacet
  facet normal 0.806298 0.591509 -0
    outer loop
      vertex -2.20083 4 -14.1187
      vertex -4.40166 7 -14.9356
      vertex -2.20083 4 -13.8813
    endloop
  endfacet
  facet normal 0.806298 0.591509 0
    outer loop
      vertex -4.40166 7 -14.9356
      vertex -2.20083 4 -14.1187
      vertex -2.20083 4 -14.4678
    endloop
  endfacet
  facet normal -0.0842795 0.591509 0.801882
    outer loop
      vertex 1.39058 7 -18.2798
      vertex 0.119847 4 -16.2004
      vertex 0.695288 4 -16.1399
    endloop
  endfacet
  facet normal -0.0842808 0.591509 0.801881
    outer loop
      vertex 1.39058 7 -18.2798
      vertex -0.0713351 4 -16.2205
      vertex 0.119847 4 -16.2004
    endloop
  endfacet
  facet normal -0.0842891 0.591512 0.801879
    outer loop
      vertex -0.0713351 4 -16.2205
      vertex 1.39058 7 -18.2798
      vertex -0.235188 4 -16.2377
    endloop
  endfacet
  facet normal -0.0842814 0.591509 0.801881
    outer loop
      vertex -0.235188 4 -16.2377
      vertex 1.39058 7 -18.2798
      vertex -0.470378 7 -18.4753
    endloop
  endfacet
  facet normal -0.40315 0.591509 0.698275
    outer loop
      vertex 1.50554 4 -15.6721
      vertex 3.01109 7 -17.3442
      vertex 1.39058 7 -18.2798
    endloop
  endfacet
  facet normal -0.65231 0.591509 0.473929
    outer loop
      vertex 1.55303 4 -15.6067
      vertex 3.01109 7 -17.3442
      vertex 1.50554 4 -15.6721
    endloop
  endfacet
  facet normal -0.652309 0.591509 0.47393
    outer loop
      vertex 1.62618 4 -15.506
      vertex 3.01109 7 -17.3442
      vertex 1.55303 4 -15.6067
    endloop
  endfacet
  facet normal -0.652309 0.591509 0.473931
    outer loop
      vertex 3.01109 7 -17.3442
      vertex 1.62618 4 -15.506
      vertex 2.05548 4 -14.9152
    endloop
  endfacet
  facet normal -0.652309 0.591509 -0.473931
    outer loop
      vertex 1.62618 4 -12.494
      vertex 3.01109 7 -10.6558
      vertex 2.05548 4 -13.0848
    endloop
  endfacet
  facet normal -0.652309 0.591509 -0.47393
    outer loop
      vertex 1.55303 4 -12.3933
      vertex 3.01109 7 -10.6558
      vertex 1.62618 4 -12.494
    endloop
  endfacet
  facet normal -0.65231 0.591509 -0.473929
    outer loop
      vertex 3.01109 7 -10.6558
      vertex 1.55303 4 -12.3933
      vertex 1.50554 4 -12.3279
    endloop
  endfacet
  facet normal -0.403149 0.591509 -0.698275
    outer loop
      vertex 1.39058 7 -9.72025
      vertex 1.50554 4 -12.3279
      vertex 0.695288 4 -11.8601
    endloop
  endfacet
  facet normal -0.0842821 0.591509 -0.801881
    outer loop
      vertex 0.119847 4 -11.7996
      vertex 1.39058 7 -9.72025
      vertex 0.695288 4 -11.8601
    endloop
  endfacet
  facet normal -0.0842808 0.591509 -0.801881
    outer loop
      vertex -0.0713351 4 -11.7795
      vertex 1.39058 7 -9.72025
      vertex 0.119847 4 -11.7996
    endloop
  endfacet
  facet normal -0.08428 0.591509 -0.801882
    outer loop
      vertex 1.39058 7 -9.72025
      vertex -0.0713351 4 -11.7795
      vertex -0.235188 4 -11.7623
    endloop
  endfacet
  facet normal 0.539519 0.591509 -0.599196
    outer loop
      vertex -2.25 7 -10.1029
      vertex -1.125 4 -12.0514
      vertex -3.64058 7 -11.355
    endloop
  endfacet
  facet normal 0.73659 0.591509 -0.327951
    outer loop
      vertex -3.64058 7 -11.355
      vertex -2.20083 4 -13.5322
      vertex -4.40166 7 -13.0644
    endloop
  endfacet
  facet normal 0.73659 0.591509 -0.327951
    outer loop
      vertex -1.82029 4 -12.6775
      vertex -2.20083 4 -13.5322
      vertex -3.64058 7 -11.355
    endloop
  endfacet
  facet normal 0.539519 0.591509 0.599197
    outer loop
      vertex -2.25 7 -17.8971
      vertex -1.46344 4 -15.6438
      vertex -1.125 4 -15.9486
    endloop
  endfacet
  facet normal 0.539518 0.591509 0.599197
    outer loop
      vertex -1.46344 4 -15.6438
      vertex -2.25 7 -17.8971
      vertex -1.63196 4 -15.4921
    endloop
  endfacet
  facet normal 0.539519 0.591509 0.599196
    outer loop
      vertex -1.63196 4 -15.4921
      vertex -2.25 7 -17.8971
      vertex -1.82029 4 -15.3225
    endloop
  endfacet
  facet normal 0.539519 0.591509 0.599197
    outer loop
      vertex -1.82029 4 -15.3225
      vertex -2.25 7 -17.8971
      vertex -3.64058 7 -16.645
    endloop
  endfacet
  facet normal -0.403149 0.591509 0.698275
    outer loop
      vertex 1.50554 4 -15.6721
      vertex 1.39058 7 -18.2798
      vertex 0.695288 4 -16.1399
    endloop
  endfacet
  facet normal 0.249159 0.591509 -0.766835
    outer loop
      vertex -0.470378 7 -9.52465
      vertex -0.235188 4 -11.7623
      vertex -1.125 4 -12.0514
    endloop
  endfacet
  facet normal 0.249161 0.591509 0.766835
    outer loop
      vertex -1.125 4 -15.9486
      vertex -0.470378 7 -18.4753
      vertex -2.25 7 -17.8971
    endloop
  endfacet
  facet normal 0.53952 0.591509 -0.599195
    outer loop
      vertex -3.64058 7 -11.355
      vertex -1.46344 4 -12.3562
      vertex -1.63195 4 -12.5079
    endloop
  endfacet
  facet normal 0.539519 0.591509 -0.599196
    outer loop
      vertex -3.64058 7 -11.355
      vertex -1.63195 4 -12.5079
      vertex -1.82029 4 -12.6775
    endloop
  endfacet
  facet normal 0.539519 0.591509 -0.599196
    outer loop
      vertex -1.46344 4 -12.3562
      vertex -3.64058 7 -11.355
      vertex -1.125 4 -12.0514
    endloop
  endfacet
  facet normal -0.978148 -2.37383e-09 0.207912
    outer loop
      vertex 4.5 7 -14
      vertex 4.489 15.606 -14.0517
      vertex 4.11095 13.6307 -15.8303
    endloop
  endfacet
  facet normal -0.978148 0 0.207912
    outer loop
      vertex 4.5 7 -14
      vertex 4.11095 13.6307 -15.8303
      vertex 4.11095 7 -15.8303
    endloop
  endfacet
  facet normal -0.978147 0 0.207912
    outer loop
      vertex 4.489 15.606 -14.0517
      vertex 4.5 7 -14
      vertex 4.5 15.6436 -14
    endloop
  endfacet
  facet normal -0.104529 0 -0.994522
    outer loop
      vertex -0.470378 7 -9.52465
      vertex 1.39058 18 -9.72025
      vertex 1.39058 7 -9.72025
    endloop
  endfacet
  facet normal -0.104529 0 -0.994522
    outer loop
      vertex 1.39058 18 -9.72025
      vertex -0.470378 7 -9.52465
      vertex -0.470378 18 -9.52465
    endloop
  endfacet
  facet normal -0.809016 5.21413e-07 0.587787
    outer loop
      vertex 4.11095 7 -15.8303
      vertex 3.26886 12.3435 -16.9894
      vertex 3.01109 11.729 -17.3442
    endloop
  endfacet
  facet normal -0.809017 0 0.587785
    outer loop
      vertex 4.11095 7 -15.8303
      vertex 3.01109 11.729 -17.3442
      vertex 3.01109 7 -17.3442
    endloop
  endfacet
  facet normal -0.809017 0 0.587785
    outer loop
      vertex 3.26886 12.3435 -16.9894
      vertex 4.11095 7 -15.8303
      vertex 4.11095 13.6307 -15.8303
    endloop
  endfacet
  facet normal 0.66913 1.57917e-07 0.743145
    outer loop
      vertex -3.64058 7 -16.645
      vertex -2.25 10.7712 -17.8971
      vertex -3.25817 12.3435 -16.9894
    endloop
  endfacet
  facet normal 0.669131 -0 0.743144
    outer loop
      vertex -3.64058 7 -16.645
      vertex -3.25817 12.3435 -16.9894
      vertex -3.64058 12.7259 -16.645
    endloop
  endfacet
  facet normal 0.66913 0 0.743145
    outer loop
      vertex -2.25 10.7712 -17.8971
      vertex -3.64058 7 -16.645
      vertex -2.25 7 -17.8971
    endloop
  endfacet
  facet normal -0.104529 0 0.994522
    outer loop
      vertex -0.470378 9.76968 -18.4753
      vertex 1.39058 7 -18.2798
      vertex 1.39058 10.1085 -18.2798
    endloop
  endfacet
  facet normal -0.104529 0 0.994522
    outer loop
      vertex 1.39058 7 -18.2798
      vertex -0.470378 9.76968 -18.4753
      vertex -0.470378 7 -18.4753
    endloop
  endfacet
  facet normal -0.5 0 -0.866025
    outer loop
      vertex 1.39058 7 -9.72025
      vertex 3.01109 18 -10.6558
      vertex 3.01109 7 -10.6558
    endloop
  endfacet
  facet normal -0.5 0 -0.866025
    outer loop
      vertex 3.01109 18 -10.6558
      vertex 1.39058 7 -9.72025
      vertex 1.39058 18 -9.72025
    endloop
  endfacet
  facet normal -0.500001 0 0.866025
    outer loop
      vertex 1.39058 10.1085 -18.2798
      vertex 3.01109 7 -17.3442
      vertex 3.01109 11.729 -17.3442
    endloop
  endfacet
  facet normal -0.500001 0 0.866025
    outer loop
      vertex 3.01109 7 -17.3442
      vertex 1.39058 10.1085 -18.2798
      vertex 1.39058 7 -18.2798
    endloop
  endfacet
  facet normal 0.913545 -0 0.406737
    outer loop
      vertex -4.40166 7 -14.9356
      vertex -3.64058 12.7259 -16.645
      vertex -4.40166 14.6244 -14.9356
    endloop
  endfacet
  facet normal 0.913545 0 0.406737
    outer loop
      vertex -3.64058 12.7259 -16.645
      vertex -4.40166 7 -14.9356
      vertex -3.64058 7 -16.645
    endloop
  endfacet
  facet normal 0.309018 -0 0.951056
    outer loop
      vertex -2.25 7 -17.8971
      vertex -0.470378 9.76968 -18.4753
      vertex -2.25 10.7712 -17.8971
    endloop
  endfacet
  facet normal 0.309018 0 0.951056
    outer loop
      vertex -0.470378 9.76968 -18.4753
      vertex -2.25 7 -17.8971
      vertex -0.470378 7 -18.4753
    endloop
  endfacet
  facet normal 1 -0 0
    outer loop
      vertex -4.40166 7 -13.0644
      vertex -4.40166 15.606 -14.0517
      vertex -4.40166 16.3234 -13.0644
    endloop
  endfacet
  facet normal 1 0 0
    outer loop
      vertex -4.40166 15.606 -14.0517
      vertex -4.40166 7 -13.0644
      vertex -4.40166 14.6244 -14.9356
    endloop
  endfacet
  facet normal 1 0 0
    outer loop
      vertex -4.40166 14.6244 -14.9356
      vertex -4.40166 7 -13.0644
      vertex -4.40166 7 -14.9356
    endloop
  endfacet
  facet normal 0.309017 0 -0.951056
    outer loop
      vertex -2.25 7 -10.1029
      vertex -0.470378 18 -9.52465
      vertex -0.470378 7 -9.52465
    endloop
  endfacet
  facet normal 0.309017 0 -0.951056
    outer loop
      vertex -0.470378 18 -9.52465
      vertex -2.25 7 -10.1029
      vertex -2.25 18 -10.1029
    endloop
  endfacet
  facet normal -0.809016 1.53167e-06 -0.587786
    outer loop
      vertex 4.11095 16.9734 -12.1697
      vertex 3.01109 18 -10.6558
      vertex 3.08439 18 -10.7567
    endloop
  endfacet
  facet normal -0.809017 0 -0.587785
    outer loop
      vertex 3.01109 7 -10.6558
      vertex 4.11095 16.9734 -12.1697
      vertex 4.11095 7 -12.1697
    endloop
  endfacet
  facet normal -0.809017 0 -0.587785
    outer loop
      vertex 4.11095 16.9734 -12.1697
      vertex 3.01109 7 -10.6558
      vertex 3.01109 18 -10.6558
    endloop
  endfacet
  facet normal -0.978148 0 -0.207912
    outer loop
      vertex 4.11095 7 -12.1697
      vertex 4.5 15.6436 -14
      vertex 4.5 7 -14
    endloop
  endfacet
  facet normal -0.978148 0 -0.207912
    outer loop
      vertex 4.5 15.6436 -14
      vertex 4.11095 7 -12.1697
      vertex 4.11095 16.9734 -12.1697
    endloop
  endfacet
  facet normal 0.669131 0 -0.743145
    outer loop
      vertex -3.64058 17.5654 -11.355
      vertex -2.25 18 -10.1029
      vertex -2.25 7 -10.1029
    endloop
  endfacet
  facet normal 0.669131 0 -0.743145
    outer loop
      vertex -3.64058 17.5654 -11.355
      vertex -2.25 7 -10.1029
      vertex -3.64058 7 -11.355
    endloop
  endfacet
  facet normal 0.669131 -1.48679e-08 -0.743145
    outer loop
      vertex -2.25 18 -10.1029
      vertex -3.64058 17.5654 -11.355
      vertex -2.97618 18 -10.7567
    endloop
  endfacet
  facet normal 0.913545 0 -0.406737
    outer loop
      vertex -3.64058 7 -11.355
      vertex -4.40166 16.3234 -13.0644
      vertex -3.64058 17.5654 -11.355
    endloop
  endfacet
  facet normal 0.913545 0 -0.406737
    outer loop
      vertex -4.40166 16.3234 -13.0644
      vertex -3.64058 7 -11.355
      vertex -4.40166 7 -13.0644
    endloop
  endfacet
  facet normal -0 0 1
    outer loop
      vertex -7.5 18 2.25
      vertex -6.60566 12.9644 2.25
      vertex -6.60566 18 2.25
    endloop
  endfacet
  facet normal 0 0 1
    outer loop
      vertex -6.60566 12.9644 2.25
      vertex -7.5 18 2.25
      vertex -7.5 12.9644 2.25
    endloop
  endfacet
  facet normal -0 0 1
    outer loop
      vertex -7.5 6.03562 2.25
      vertex 7.5 6 2.25
      vertex 7.5 6.03562 2.25
    endloop
  endfacet
  facet normal 0 0 1
    outer loop
      vertex 7.5 6 2.25
      vertex -7.5 6.03562 2.25
      vertex -7.5 6 2.25
    endloop
  endfacet
  facet normal -0 0 1
    outer loop
      vertex -3.39434 18 2.25
      vertex -1.60566 12.9644 2.25
      vertex -1.60566 18 2.25
    endloop
  endfacet
  facet normal 0 0 1
    outer loop
      vertex -1.60566 12.9644 2.25
      vertex -3.39434 18 2.25
      vertex -3.39434 12.9644 2.25
    endloop
  endfacet
  facet normal -0 0 1
    outer loop
      vertex 1.60566 18 2.25
      vertex 3.39434 12.9644 2.25
      vertex 3.39434 18 2.25
    endloop
  endfacet
  facet normal 0 0 1
    outer loop
      vertex 3.39434 12.9644 2.25
      vertex 1.60566 18 2.25
      vertex 1.60566 12.9644 2.25
    endloop
  endfacet
  facet normal -0 0 1
    outer loop
      vertex 6.60566 18 2.25
      vertex 7.5 17.6554 2.25
      vertex 7.5 18 2.25
    endloop
  endfacet
  facet normal 0 0 1
    outer loop
      vertex 7.5 17.6554 2.25
      vertex 6.60566 18 2.25
      vertex 7.5 16.8826 2.25
    endloop
  endfacet
  facet normal 0 0 1
    outer loop
      vertex 6.60566 12.9644 2.25
      vertex 7.5 16.8826 2.25
      vertex 6.60566 18 2.25
    endloop
  endfacet
  facet normal 0 0 1
    outer loop
      vertex 7.5 16.8826 2.25
      vertex 6.60566 12.9644 2.25
      vertex 7.5 12.9644 2.25
    endloop
  endfacet
  facet normal 0 1 0
    outer loop
      vertex 7.5 6 20.0102
      vertex 0.848655 6 17.5991
      vertex -0.391981 6 17.7295
    endloop
  endfacet
  facet normal 0 1 0
    outer loop
      vertex 7.5 6 20.0102
      vertex 1.15881 6 17.5665
      vertex 0.848655 6 17.5991
    endloop
  endfacet
  facet normal 0 1 0
    outer loop
      vertex 7.5 6 20.0102
      vertex 1.4289 6 17.4105
      vertex 1.15881 6 17.5665
    endloop
  endfacet
  facet normal 0 1 0
    outer loop
      vertex 7.5 6 20.0102
      vertex 2.50924 6 16.7868
      vertex 1.4289 6 17.4105
    endloop
  endfacet
  facet normal 0 1 0
    outer loop
      vertex 7.5 6 18.2923
      vertex 2.69255 6 16.5345
      vertex 2.50924 6 16.7868
    endloop
  endfacet
  facet normal 0 1 0
    outer loop
      vertex 7.5 6 18.2923
      vertex 3.4258 6 15.5253
      vertex 2.69255 6 16.5345
    endloop
  endfacet
  facet normal 0 1 0
    outer loop
      vertex 7.5 6 14.3363
      vertex 3.4258 6 15.5253
      vertex 7.5 6 18.2923
    endloop
  endfacet
  facet normal 0 1 0
    outer loop
      vertex 3.4258 6 15.5253
      vertex 7.5 6 14.3363
      vertex 3.49064 6 15.2202
    endloop
  endfacet
  facet normal 0 1 0
    outer loop
      vertex 7.5 6 14.3363
      vertex 3.75 6 14
      vertex 3.49064 6 15.2202
    endloop
  endfacet
  facet normal 0 1 0
    outer loop
      vertex 7.5 6 14.3363
      vertex 3.4258 6 12.4747
      vertex 3.75 6 14
    endloop
  endfacet
  facet normal 0 1 0
    outer loop
      vertex 7.5 6 14.3363
      vertex 2.69255 6 11.4655
      vertex 3.4258 6 12.4747
    endloop
  endfacet
  facet normal 0 1 0
    outer loop
      vertex 7.5 6 2.25
      vertex 2.69255 6 11.4655
      vertex 7.5 6 14.3363
    endloop
  endfacet
  facet normal 0 1 0
    outer loop
      vertex 7.5 6 2.25
      vertex 1.4289 6 10.5895
      vertex 2.50924 6 11.2132
    endloop
  endfacet
  facet normal 0 1 0
    outer loop
      vertex 7.5 6 2.25
      vertex 0.848655 6 10.4009
      vertex 1.15881 6 10.4335
    endloop
  endfacet
  facet normal 0 1 0
    outer loop
      vertex 0.848655 6 10.4009
      vertex 7.5 6 2.25
      vertex -0.391981 6 10.2705
    endloop
  endfacet
  facet normal 0 1 0
    outer loop
      vertex 1.4289 6 10.5895
      vertex 7.5 6 2.25
      vertex 1.15881 6 10.4335
    endloop
  endfacet
  facet normal 0 1 0
    outer loop
      vertex 2.69255 6 11.4655
      vertex 7.5 6 2.25
      vertex 2.50924 6 11.2132
    endloop
  endfacet
  facet normal 0 1 0
    outer loop
      vertex 2.50924 6 16.7868
      vertex 7.5 6 20.0102
      vertex 7.5 6 18.2923
    endloop
  endfacet
  facet normal 0 1 0
    outer loop
      vertex 7.5 6 20.0102
      vertex -0.391981 6 17.7295
      vertex -7.5 6 20.0102
    endloop
  endfacet
  facet normal 0 1 -0
    outer loop
      vertex -0.688585 6 17.6331
      vertex -7.5 6 20.0102
      vertex -0.391981 6 17.7295
    endloop
  endfacet
  facet normal 0 1 -0
    outer loop
      vertex -1.875 6 17.2476
      vertex -7.5 6 20.0102
      vertex -0.688585 6 17.6331
    endloop
  endfacet
  facet normal 0 1 -0
    outer loop
      vertex -2.80205 6 16.4129
      vertex -7.5 6 20.0102
      vertex -1.875 6 17.2476
    endloop
  endfacet
  facet normal 0 1 -0
    outer loop
      vertex -3.03381 6 16.2042
      vertex -7.5 6 20.0102
      vertex -2.80205 6 16.4129
    endloop
  endfacet
  facet normal 0 1 -0
    outer loop
      vertex -3.16066 6 15.9193
      vertex -7.5 6 20.0102
      vertex -3.03381 6 16.2042
    endloop
  endfacet
  facet normal 0 1 -0
    outer loop
      vertex -3.66805 6 14.7797
      vertex -7.5 6 20.0102
      vertex -3.16066 6 15.9193
    endloop
  endfacet
  facet normal 0 1 -0
    outer loop
      vertex -3.66805 6 13.2203
      vertex -7.5 6 20.0102
      vertex -3.66805 6 14.7797
    endloop
  endfacet
  facet normal 0 1 0
    outer loop
      vertex -7.5 6 2.25
      vertex -3.66805 6 13.2203
      vertex -3.03381 6 11.7958
    endloop
  endfacet
  facet normal 0 1 0
    outer loop
      vertex -7.5 6 2.25
      vertex -0.688585 6 10.3669
      vertex -0.391981 6 10.2705
    endloop
  endfacet
  facet normal 0 1 0
    outer loop
      vertex -7.5 6 2.25
      vertex -0.391981 6 10.2705
      vertex 7.5 6 2.25
    endloop
  endfacet
  facet normal 0 1 0
    outer loop
      vertex -0.688585 6 10.3669
      vertex -7.5 6 2.25
      vertex -1.875 6 10.7524
    endloop
  endfacet
  facet normal 0 1 0
    outer loop
      vertex -3.66805 6 13.2203
      vertex -7.5 6 2.25
      vertex -7.5 6 20.0102
    endloop
  endfacet
  facet normal 0 1 0
    outer loop
      vertex -1.875 6 10.7524
      vertex -7.5 6 2.25
      vertex -3.03381 6 11.7958
    endloop
  endfacet
endsolid OpenSCAD_Model
