solid OpenSCAD_Model
  facet normal -0.612372 0.353553 -0.707107
    outer loop
      vertex -14.5981 6.5 -5
      vertex 13.6699 59.4615 -3
      vertex 15.4019 58.4615 -5
    endloop
  endfacet
  facet normal -0.612372 0.353553 -0.707107
    outer loop
      vertex 13.6699 59.4615 -3
      vertex -14.5981 6.5 -5
      vertex -16.3301 7.5 -3
    endloop
  endfacet
  facet normal 0.612372 -0.353553 -0.707107
    outer loop
      vertex 2.43376 20 -3
      vertex 20.5981 55.4615 -5
      vertex 22.3301 54.4615 -3
    endloop
  endfacet
  facet normal 0.612372 -0.353553 -0.707107
    outer loop
      vertex 20.5981 55.4615 -5
      vertex 2.43376 20 -3
      vertex -1.03035 18 -5
    endloop
  endfacet
  facet normal 0 0 -1
    outer loop
      vertex 15.4019 -58.4615 -5
      vertex -1.03035 -18 -5
      vertex 20.5981 -55.4615 -5
    endloop
  endfacet
  facet normal 0 0 -1
    outer loop
      vertex -14.5981 -6.5 -5
      vertex -1.93649 -2.85317 -5
      vertex -1.03035 -18 -5
    endloop
  endfacet
  facet normal -0 0 -1
    outer loop
      vertex -1.93649 -2.85317 -5
      vertex -14.5981 -6.5 -5
      vertex -3.66854 -1.76336 -5
    endloop
  endfacet
  facet normal -0 0 -1
    outer loop
      vertex -3.66854 -1.76336 -5
      vertex -14.5981 -6.5 -5
      vertex -4.33013 0 -5
    endloop
  endfacet
  facet normal 0 0 -1
    outer loop
      vertex -14.5981 -6.5 -5
      vertex -1.03035 -18 -5
      vertex 15.4019 -58.4615 -5
    endloop
  endfacet
  facet normal 0 0 -1
    outer loop
      vertex -1.03035 -18 -5
      vertex 5.5 -5.46015 -5
      vertex 5.5 -18 -5
    endloop
  endfacet
  facet normal -0 0 -1
    outer loop
      vertex 5.5 -5.46015 -5
      vertex -1.03035 -18 -5
      vertex -1.93649 -2.85317 -5
    endloop
  endfacet
  facet normal 0 0 -1
    outer loop
      vertex 5.5 5.46015 -5
      vertex -1.03035 18 -5
      vertex 5.5 18 -5
    endloop
  endfacet
  facet normal 0 -0 -1
    outer loop
      vertex -1.03035 18 -5
      vertex 5.5 5.46015 -5
      vertex -1.93649 2.85317 -5
    endloop
  endfacet
  facet normal 0 0 -1
    outer loop
      vertex -1.03035 18 -5
      vertex 15.4019 58.4615 -5
      vertex 20.5981 55.4615 -5
    endloop
  endfacet
  facet normal 0 0 -1
    outer loop
      vertex -14.5981 6.5 -5
      vertex -1.93649 2.85317 -5
      vertex -3.66854 1.76336 -5
    endloop
  endfacet
  facet normal 0 0 -1
    outer loop
      vertex -14.5981 6.5 -5
      vertex -3.66854 1.76336 -5
      vertex -4.33013 0 -5
    endloop
  endfacet
  facet normal 0 0 -1
    outer loop
      vertex -14.5981 6.5 -5
      vertex -4.33013 0 -5
      vertex -14.5981 -6.5 -5
    endloop
  endfacet
  facet normal 0 0 -1
    outer loop
      vertex -1.93649 2.85317 -5
      vertex -14.5981 6.5 -5
      vertex -1.03035 18 -5
    endloop
  endfacet
  facet normal -0 0 -1
    outer loop
      vertex -1.03035 18 -5
      vertex -14.5981 6.5 -5
      vertex 15.4019 58.4615 -5
    endloop
  endfacet
  facet normal 0 0 -1
    outer loop
      vertex 14 -18 -5
      vertex 11.547 -7.25 -5
      vertex 14 18 -5
    endloop
  endfacet
  facet normal 0 0 -1
    outer loop
      vertex 14 -18 -5
      vertex 11.3475 -7.48776 -5
      vertex 11.547 -7.25 -5
    endloop
  endfacet
  facet normal 0 0 -1
    outer loop
      vertex 6.5 -18 -5
      vertex 11.3475 -7.48776 -5
      vertex 14 -18 -5
    endloop
  endfacet
  facet normal -0 0 -1
    outer loop
      vertex 11.3475 -7.48776 -5
      vertex 6.5 -18 -5
      vertex 6.5 -7.48776 -5
    endloop
  endfacet
  facet normal 0 0 -1
    outer loop
      vertex 11.547 7.25 -5
      vertex 14 18 -5
      vertex 11.547 -7.25 -5
    endloop
  endfacet
  facet normal 0 0 -1
    outer loop
      vertex 11.3475 7.48776 -5
      vertex 14 18 -5
      vertex 11.547 7.25 -5
    endloop
  endfacet
  facet normal 0 0 -1
    outer loop
      vertex 6.5 18 -5
      vertex 11.3475 7.48776 -5
      vertex 6.5 7.48776 -5
    endloop
  endfacet
  facet normal 0 0 -1
    outer loop
      vertex 11.3475 7.48776 -5
      vertex 6.5 18 -5
      vertex 14 18 -5
    endloop
  endfacet
  facet normal 0.5 0.866025 2.38419e-07
    outer loop
      vertex 22.3301 54.4615 3
      vertex 15.4019 58.4615 5
      vertex 20.5981 55.4615 5
    endloop
  endfacet
  facet normal 0.5 0.866025 4.76837e-08
    outer loop
      vertex 22.3301 54.4615 3
      vertex 13.6699 59.4615 3
      vertex 15.4019 58.4615 5
    endloop
  endfacet
  facet normal 0.5 0.866025 -0
    outer loop
      vertex 22.3301 54.4615 -3
      vertex 13.6699 59.4615 3
      vertex 22.3301 54.4615 3
    endloop
  endfacet
  facet normal 0.5 0.866025 0
    outer loop
      vertex 22.3301 54.4615 -3
      vertex 13.6699 59.4615 -3
      vertex 13.6699 59.4615 3
    endloop
  endfacet
  facet normal 0.5 0.866025 -1.90735e-07
    outer loop
      vertex 20.5981 55.4615 -5
      vertex 13.6699 59.4615 -3
      vertex 22.3301 54.4615 -3
    endloop
  endfacet
  facet normal 0.5 0.866025 0
    outer loop
      vertex 13.6699 59.4615 -3
      vertex 20.5981 55.4615 -5
      vertex 15.4019 58.4615 -5
    endloop
  endfacet
  facet normal 0.612372 -0.353553 0.707107
    outer loop
      vertex 22.3301 54.4615 3
      vertex -0.00444788 18.5923 4.4077
      vertex 2.43376 20 3
    endloop
  endfacet
  facet normal -0.866025 0.5 0
    outer loop
      vertex 13.6699 59.4615 -3
      vertex -12.4683 14.1888 -0.386271
      vertex 13.6699 59.4615 3
    endloop
  endfacet
  facet normal -0.866025 0.5 -3.26258e-07
    outer loop
      vertex 13.6699 59.4615 -3
      vertex -13.1547 13 -1.25
      vertex -12.4683 14.1888 -0.386271
    endloop
  endfacet
  facet normal -0.866025 0.5 2.4668e-07
    outer loop
      vertex -13.1547 13 -1.25
      vertex -16.3301 7.5 -3
      vertex -13.8411 11.8112 -0.386271
    endloop
  endfacet
  facet normal -0.866025 0.5 2.356e-08
    outer loop
      vertex -16.3301 7.5 -3
      vertex -13.1547 13 -1.25
      vertex 13.6699 59.4615 -3
    endloop
  endfacet
  facet normal -0.866025 0.5 3.44923e-07
    outer loop
      vertex -12.7305 13.7347 1.01127
      vertex 13.6699 59.4615 3
      vertex -12.4683 14.1888 -0.386271
    endloop
  endfacet
  facet normal -0.866025 0.5 7.08474e-07
    outer loop
      vertex -16.3301 7.5 3
      vertex -12.7305 13.7347 1.01127
      vertex -13.5789 12.2653 1.01127
    endloop
  endfacet
  facet normal -0.866025 0.5 0
    outer loop
      vertex -16.3301 7.5 3
      vertex -13.8411 11.8112 -0.386271
      vertex -16.3301 7.5 -3
    endloop
  endfacet
  facet normal -0.866025 0.5 -1.18145e-07
    outer loop
      vertex -12.7305 13.7347 1.01127
      vertex -16.3301 7.5 3
      vertex 13.6699 59.4615 3
    endloop
  endfacet
  facet normal -0.866025 0.5 -3.00342e-07
    outer loop
      vertex -13.8411 11.8112 -0.386271
      vertex -16.3301 7.5 3
      vertex -13.5789 12.2653 1.01127
    endloop
  endfacet
  facet normal 0 0 1
    outer loop
      vertex 15.4019 58.4615 5
      vertex -1.03034 18 5
      vertex 20.5981 55.4615 5
    endloop
  endfacet
  facet normal 0 0 1
    outer loop
      vertex -14.5981 6.5 5
      vertex -1.03034 18 5
      vertex 15.4019 58.4615 5
    endloop
  endfacet
  facet normal 0 0 1
    outer loop
      vertex -1.03034 18 5
      vertex -14.5981 6.5 5
      vertex -7.70999 2.85317 5
    endloop
  endfacet
  facet normal 0 0 1
    outer loop
      vertex -9.44205 1.76336 5
      vertex -14.5981 6.5 5
      vertex -10.1036 0 5
    endloop
  endfacet
  facet normal 0 0 1
    outer loop
      vertex -7.70999 2.85317 5
      vertex -14.5981 6.5 5
      vertex -9.44205 1.76336 5
    endloop
  endfacet
  facet normal 0 0 1
    outer loop
      vertex 5.5 18 5
      vertex 0.37788 7.48776 5
      vertex 5.5 7.48776 5
    endloop
  endfacet
  facet normal -0 0 1
    outer loop
      vertex -1.03034 18 5
      vertex 0.37788 7.48776 5
      vertex 5.5 18 5
    endloop
  endfacet
  facet normal 0 0 1
    outer loop
      vertex 0.37788 7.48776 5
      vertex -1.03034 18 5
      vertex 0.055132 7.39695 5
    endloop
  endfacet
  facet normal 0 0 1
    outer loop
      vertex -7.70999 2.85317 5
      vertex 0.055132 7.39695 5
      vertex -1.03034 18 5
    endloop
  endfacet
  facet normal 0 0 1
    outer loop
      vertex 0.055132 7.39695 5
      vertex -7.70999 2.85317 5
      vertex 0.055132 5.57535 5
    endloop
  endfacet
  facet normal 0 0 1
    outer loop
      vertex -7.70999 -2.85317 5
      vertex 0.055132 -7.39695 5
      vertex 0.055132 -5.57535 5
    endloop
  endfacet
  facet normal -0 0 1
    outer loop
      vertex -14.5981 -6.5 5
      vertex 0.055132 -7.39695 5
      vertex -7.70999 -2.85317 5
    endloop
  endfacet
  facet normal -0 0 1
    outer loop
      vertex 0.37788 -7.48776 5
      vertex 5.5 -18 5
      vertex 5.5 -7.48776 5
    endloop
  endfacet
  facet normal 0 0 1
    outer loop
      vertex -1.03035 -18 5
      vertex 0.37788 -7.48776 5
      vertex 0.055132 -7.39695 5
    endloop
  endfacet
  facet normal 0 0 1
    outer loop
      vertex 0.37788 -7.48776 5
      vertex -1.03035 -18 5
      vertex 5.5 -18 5
    endloop
  endfacet
  facet normal 0 0 1
    outer loop
      vertex -1.03035 -18 5
      vertex 15.4019 -58.4615 5
      vertex 20.5981 -55.4615 5
    endloop
  endfacet
  facet normal 0 0 1
    outer loop
      vertex 0.055132 -7.39695 5
      vertex -14.5981 -6.5 5
      vertex -1.03035 -18 5
    endloop
  endfacet
  facet normal 0 0 1
    outer loop
      vertex -14.5981 -6.5 5
      vertex -7.70999 -2.85317 5
      vertex -9.44205 -1.76336 5
    endloop
  endfacet
  facet normal 0 0 1
    outer loop
      vertex -14.5981 -6.5 5
      vertex -10.1036 0 5
      vertex -14.5981 6.5 5
    endloop
  endfacet
  facet normal 0 0 1
    outer loop
      vertex -10.1036 0 5
      vertex -14.5981 -6.5 5
      vertex -9.44205 -1.76336 5
    endloop
  endfacet
  facet normal 0 0 1
    outer loop
      vertex -1.03035 -18 5
      vertex -14.5981 -6.5 5
      vertex 15.4019 -58.4615 5
    endloop
  endfacet
  facet normal -0 0 1
    outer loop
      vertex 6.5 18 5
      vertex 14 -18 5
      vertex 14 18 5
    endloop
  endfacet
  facet normal 0 0 1
    outer loop
      vertex 14 -18 5
      vertex 6.5 18 5
      vertex 6.5 -18 5
    endloop
  endfacet
  facet normal -0.612372 0.353553 0.707107
    outer loop
      vertex 13.6699 59.4615 3
      vertex -14.5981 6.5 5
      vertex 15.4019 58.4615 5
    endloop
  endfacet
  facet normal -0.612372 0.353553 0.707107
    outer loop
      vertex -14.5981 6.5 5
      vertex 13.6699 59.4615 3
      vertex -16.3301 7.5 3
    endloop
  endfacet
  facet normal 0.612372 -0.353553 0.707107
    outer loop
      vertex 20.5981 55.4615 5
      vertex -0.00444788 18.5923 4.4077
      vertex 22.3301 54.4615 3
    endloop
  endfacet
  facet normal 0.612373 -0.353553 0.707107
    outer loop
      vertex -0.00444788 18.5923 4.4077
      vertex 20.5981 55.4615 5
      vertex -1.03034 18 5
    endloop
  endfacet
  facet normal 0.866025 -0.5 0
    outer loop
      vertex 2.43376 20 3
      vertex 22.3301 54.4615 -3
      vertex 22.3301 54.4615 3
    endloop
  endfacet
  facet normal 0.866025 -0.5 0
    outer loop
      vertex 22.3301 54.4615 -3
      vertex 2.43376 20 3
      vertex 2.43376 20 -3
    endloop
  endfacet
  facet normal 0.612372 0.353553 -0.707107
    outer loop
      vertex 20.5981 -55.4615 -5
      vertex 2.43376 -20 -3
      vertex 22.3301 -54.4615 -3
    endloop
  endfacet
  facet normal 0.612372 0.353553 -0.707107
    outer loop
      vertex 2.43376 -20 -3
      vertex 20.5981 -55.4615 -5
      vertex -1.03035 -18 -5
    endloop
  endfacet
  facet normal 0.866025 0.5 0
    outer loop
      vertex 22.3301 -54.4615 3
      vertex 2.43376 -20 -3
      vertex 2.43376 -20 3
    endloop
  endfacet
  facet normal 0.866025 0.5 0
    outer loop
      vertex 2.43376 -20 -3
      vertex 22.3301 -54.4615 3
      vertex 22.3301 -54.4615 -3
    endloop
  endfacet
  facet normal -0.612372 -0.353553 0.707107
    outer loop
      vertex -14.5981 -6.5 5
      vertex 13.6699 -59.4615 3
      vertex 15.4019 -58.4615 5
    endloop
  endfacet
  facet normal -0.612372 -0.353553 0.707107
    outer loop
      vertex 13.6699 -59.4615 3
      vertex -14.5981 -6.5 5
      vertex -16.3301 -7.5 3
    endloop
  endfacet
  facet normal -0.866025 -0.5 0
    outer loop
      vertex -16.3301 -7.5 -3
      vertex -13.8411 -11.8112 -0.386271
      vertex -16.3301 -7.5 3
    endloop
  endfacet
  facet normal -0.866025 -0.5 2.4668e-07
    outer loop
      vertex -16.3301 -7.5 -3
      vertex -13.1547 -13 -1.25
      vertex -13.8411 -11.8112 -0.386271
    endloop
  endfacet
  facet normal -0.866025 -0.5 -3.26258e-07
    outer loop
      vertex -13.1547 -13 -1.25
      vertex 13.6699 -59.4615 -3
      vertex -12.4683 -14.1888 -0.386271
    endloop
  endfacet
  facet normal -0.866025 -0.5 2.356e-08
    outer loop
      vertex 13.6699 -59.4615 -3
      vertex -13.1547 -13 -1.25
      vertex -16.3301 -7.5 -3
    endloop
  endfacet
  facet normal -0.866025 -0.5 -3.00342e-07
    outer loop
      vertex -13.5789 -12.2653 1.01127
      vertex -16.3301 -7.5 3
      vertex -13.8411 -11.8112 -0.386271
    endloop
  endfacet
  facet normal -0.866025 -0.5 7.08474e-07
    outer loop
      vertex -12.7305 -13.7347 1.01127
      vertex -16.3301 -7.5 3
      vertex -13.5789 -12.2653 1.01127
    endloop
  endfacet
  facet normal -0.866025 -0.5 -0
    outer loop
      vertex 13.6699 -59.4615 3
      vertex -12.4683 -14.1888 -0.386271
      vertex 13.6699 -59.4615 -3
    endloop
  endfacet
  facet normal -0.866025 -0.5 3.44923e-07
    outer loop
      vertex -12.4683 -14.1888 -0.386271
      vertex 13.6699 -59.4615 3
      vertex -12.7305 -13.7347 1.01127
    endloop
  endfacet
  facet normal -0.866025 -0.5 -1.18145e-07
    outer loop
      vertex -12.7305 -13.7347 1.01127
      vertex 13.6699 -59.4615 3
      vertex -16.3301 -7.5 3
    endloop
  endfacet
  facet normal -0.612372 -0.353553 -0.707107
    outer loop
      vertex 13.6699 -59.4615 -3
      vertex -14.5981 -6.5 -5
      vertex 15.4019 -58.4615 -5
    endloop
  endfacet
  facet normal -0.612372 -0.353553 -0.707107
    outer loop
      vertex -14.5981 -6.5 -5
      vertex 13.6699 -59.4615 -3
      vertex -16.3301 -7.5 -3
    endloop
  endfacet
  facet normal 0.612372 0.353553 0.707107
    outer loop
      vertex 2.43376 -20 3
      vertex 20.5981 -55.4615 5
      vertex 22.3301 -54.4615 3
    endloop
  endfacet
  facet normal 0.612372 0.353553 0.707107
    outer loop
      vertex 20.5981 -55.4615 5
      vertex 2.43376 -20 3
      vertex -1.03035 -18 5
    endloop
  endfacet
  facet normal 0.5 -0.866025 0
    outer loop
      vertex 13.6699 -59.4615 3
      vertex 20.5981 -55.4615 5
      vertex 15.4019 -58.4615 5
    endloop
  endfacet
  facet normal 0.5 -0.866025 1.90735e-07
    outer loop
      vertex 13.6699 -59.4615 3
      vertex 22.3301 -54.4615 3
      vertex 20.5981 -55.4615 5
    endloop
  endfacet
  facet normal 0.5 -0.866025 0
    outer loop
      vertex 13.6699 -59.4615 -3
      vertex 22.3301 -54.4615 3
      vertex 13.6699 -59.4615 3
    endloop
  endfacet
  facet normal 0.5 -0.866025 0
    outer loop
      vertex 13.6699 -59.4615 -3
      vertex 22.3301 -54.4615 -3
      vertex 22.3301 -54.4615 3
    endloop
  endfacet
  facet normal 0.5 -0.866025 -4.76837e-08
    outer loop
      vertex 15.4019 -58.4615 -5
      vertex 22.3301 -54.4615 -3
      vertex 13.6699 -59.4615 -3
    endloop
  endfacet
  facet normal 0.5 -0.866025 -2.38419e-07
    outer loop
      vertex 22.3301 -54.4615 -3
      vertex 15.4019 -58.4615 -5
      vertex 20.5981 -55.4615 -5
    endloop
  endfacet
  facet normal 0 0.707107 -0.707107
    outer loop
      vertex 14 18 -5
      vertex 6.5 20 -3
      vertex 14 20 -3
    endloop
  endfacet
  facet normal 0 0.707107 -0.707107
    outer loop
      vertex 6.5 20 -3
      vertex 14 18 -5
      vertex 6.5 18 -5
    endloop
  endfacet
  facet normal 0 0.707107 -0.707107
    outer loop
      vertex 5.5 18 -5
      vertex 2.43376 20 -3
      vertex 5.5 20 -3
    endloop
  endfacet
  facet normal 0 0.707107 -0.707107
    outer loop
      vertex 2.43376 20 -3
      vertex 5.5 18 -5
      vertex -1.03035 18 -5
    endloop
  endfacet
  facet normal 0 1 -0
    outer loop
      vertex 14 20 -3
      vertex 6.5 20 3
      vertex 14 20 3
    endloop
  endfacet
  facet normal 0 1 0
    outer loop
      vertex 6.5 20 3
      vertex 14 20 -3
      vertex 6.5 20 -3
    endloop
  endfacet
  facet normal 0 1 -0
    outer loop
      vertex 5.5 20 -3
      vertex 2.43376 20 3
      vertex 5.5 20 3
    endloop
  endfacet
  facet normal 0 1 0
    outer loop
      vertex 2.43376 20 3
      vertex 5.5 20 -3
      vertex 2.43376 20 -3
    endloop
  endfacet
  facet normal 0 0.707107 0.707107
    outer loop
      vertex 14 20 3
      vertex 6.5 18 5
      vertex 14 18 5
    endloop
  endfacet
  facet normal 0 0.707107 0.707107
    outer loop
      vertex 6.5 18 5
      vertex 14 20 3
      vertex 6.5 20 3
    endloop
  endfacet
  facet normal 0 0.707106 0.707107
    outer loop
      vertex 5.5 18 5
      vertex -0.00444788 18.5923 4.4077
      vertex -1.03034 18 5
    endloop
  endfacet
  facet normal -0 0.707107 0.707107
    outer loop
      vertex 2.43376 20 3
      vertex 5.5 18 5
      vertex 5.5 20 3
    endloop
  endfacet
  facet normal 7.33566e-08 0.707107 0.707107
    outer loop
      vertex 5.5 18 5
      vertex 2.43376 20 3
      vertex -0.00444788 18.5923 4.4077
    endloop
  endfacet
  facet normal 0 -0.707107 -0.707107
    outer loop
      vertex 6.5 -18 -5
      vertex 14 -20 -3
      vertex 6.5 -20 -3
    endloop
  endfacet
  facet normal 0 -0.707107 -0.707107
    outer loop
      vertex 14 -20 -3
      vertex 6.5 -18 -5
      vertex 14 -18 -5
    endloop
  endfacet
  facet normal -0 -0.707107 -0.707107
    outer loop
      vertex 5.5 -18 -5
      vertex 2.43376 -20 -3
      vertex -1.03035 -18 -5
    endloop
  endfacet
  facet normal 0 -0.707107 -0.707107
    outer loop
      vertex 2.43376 -20 -3
      vertex 5.5 -18 -5
      vertex 5.5 -20 -3
    endloop
  endfacet
  facet normal 0 -1 0
    outer loop
      vertex 6.5 -20 -3
      vertex 14 -20 3
      vertex 6.5 -20 3
    endloop
  endfacet
  facet normal 0 -1 -0
    outer loop
      vertex 14 -20 3
      vertex 6.5 -20 -3
      vertex 14 -20 -3
    endloop
  endfacet
  facet normal 0 -1 0
    outer loop
      vertex 2.43376 -20 -3
      vertex 5.5 -20 3
      vertex 2.43376 -20 3
    endloop
  endfacet
  facet normal 0 -1 -0
    outer loop
      vertex 5.5 -20 3
      vertex 2.43376 -20 -3
      vertex 5.5 -20 -3
    endloop
  endfacet
  facet normal 1 0 0
    outer loop
      vertex 14 10.1468 0.927051
      vertex 14 -10.1468 0.927051
      vertex 14 10.1468 -0.927051
    endloop
  endfacet
  facet normal 1 0 0
    outer loop
      vertex 14 11.2366 2.42705
      vertex 14 -10.1468 0.927051
      vertex 14 10.1468 0.927051
    endloop
  endfacet
  facet normal 1 0 0
    outer loop
      vertex 14 -11.2366 2.42705
      vertex 14 11.2366 2.42705
      vertex 14 13 3
    endloop
  endfacet
  facet normal 1 0 0
    outer loop
      vertex 14 11.2366 2.42705
      vertex 14 -11.2366 2.42705
      vertex 14 -10.1468 0.927051
    endloop
  endfacet
  facet normal 1 0 -0
    outer loop
      vertex 14 -11.2366 2.42705
      vertex 14 13 3
      vertex 14 -13 3
    endloop
  endfacet
  facet normal 1 -0 0
    outer loop
      vertex 14 15.8532 -0.927051
      vertex 14 20 -3
      vertex 14 20 3
    endloop
  endfacet
  facet normal 1 0 0
    outer loop
      vertex 14 15.8532 -0.927051
      vertex 14 20 3
      vertex 14 15.8532 0.927051
    endloop
  endfacet
  facet normal 1 0 0
    outer loop
      vertex 14 20 3
      vertex 14 14.7634 2.42705
      vertex 14 15.8532 0.927051
    endloop
  endfacet
  facet normal 1 0 -0
    outer loop
      vertex 14 14.7634 2.42705
      vertex 14 20 3
      vertex 14 13 3
    endloop
  endfacet
  facet normal 1 0 0
    outer loop
      vertex 14 20 -3
      vertex 14 15.8532 -0.927051
      vertex 14 18 -5
    endloop
  endfacet
  facet normal 1 -0 0
    outer loop
      vertex 14 14.7634 -2.42705
      vertex 14 18 -5
      vertex 14 15.8532 -0.927051
    endloop
  endfacet
  facet normal 1 -0 0
    outer loop
      vertex 14 13 -3
      vertex 14 18 -5
      vertex 14 14.7634 -2.42705
    endloop
  endfacet
  facet normal 1 0 0
    outer loop
      vertex 14 -13 -3
      vertex 14 13 -3
      vertex 14 11.2366 -2.42705
    endloop
  endfacet
  facet normal 1 0 0
    outer loop
      vertex 14 -10.1468 -0.927051
      vertex 14 10.1468 -0.927051
      vertex 14 -10.1468 0.927051
    endloop
  endfacet
  facet normal 1 0 0
    outer loop
      vertex 14 10.1468 -0.927051
      vertex 14 -10.1468 -0.927051
      vertex 14 11.2366 -2.42705
    endloop
  endfacet
  facet normal 1 0 0
    outer loop
      vertex 14 -11.2366 -2.42705
      vertex 14 11.2366 -2.42705
      vertex 14 -10.1468 -0.927051
    endloop
  endfacet
  facet normal 1 0 0
    outer loop
      vertex 14 -13 -3
      vertex 14 11.2366 -2.42705
      vertex 14 -11.2366 -2.42705
    endloop
  endfacet
  facet normal 1 0 0
    outer loop
      vertex 14 13 -3
      vertex 14 -13 -3
      vertex 14 18 -5
    endloop
  endfacet
  facet normal 1 0 0
    outer loop
      vertex 14 -13 -3
      vertex 14 -18 -5
      vertex 14 18 -5
    endloop
  endfacet
  facet normal 1 0 0
    outer loop
      vertex 14 -14.7634 -2.42705
      vertex 14 -18 -5
      vertex 14 -13 -3
    endloop
  endfacet
  facet normal 1 0 0
    outer loop
      vertex 14 -18 -5
      vertex 14 -14.7634 -2.42705
      vertex 14 -15.8532 -0.927051
    endloop
  endfacet
  facet normal 1 0 0
    outer loop
      vertex 14 -20 -3
      vertex 14 -15.8532 -0.927051
      vertex 14 -15.8532 0.927051
    endloop
  endfacet
  facet normal 1 -0 0
    outer loop
      vertex 14 -20 3
      vertex 14 -14.7634 2.42705
      vertex 14 -13 3
    endloop
  endfacet
  facet normal 1 0 0
    outer loop
      vertex 14 -20 3
      vertex 14 -15.8532 0.927051
      vertex 14 -14.7634 2.42705
    endloop
  endfacet
  facet normal 1 0 0
    outer loop
      vertex 14 -20 -3
      vertex 14 -15.8532 0.927051
      vertex 14 -20 3
    endloop
  endfacet
  facet normal 1 0 0
    outer loop
      vertex 14 -15.8532 -0.927051
      vertex 14 -20 -3
      vertex 14 -18 -5
    endloop
  endfacet
  facet normal 1 0 4.76837e-07
    outer loop
      vertex 14 18 5
      vertex 14 13 3
      vertex 14 20 3
    endloop
  endfacet
  facet normal 1 0 4.76837e-07
    outer loop
      vertex 14 18 5
      vertex 14 -13 3
      vertex 14 13 3
    endloop
  endfacet
  facet normal 1 -0 4.76837e-07
    outer loop
      vertex 14 -18 5
      vertex 14 -13 3
      vertex 14 18 5
    endloop
  endfacet
  facet normal 1 0 4.76837e-07
    outer loop
      vertex 14 -13 3
      vertex 14 -18 5
      vertex 14 -20 3
    endloop
  endfacet
  facet normal 0 -0.707107 0.707107
    outer loop
      vertex 6.5 -20 3
      vertex 14 -18 5
      vertex 6.5 -18 5
    endloop
  endfacet
  facet normal 0 -0.707107 0.707107
    outer loop
      vertex 14 -18 5
      vertex 6.5 -20 3
      vertex 14 -20 3
    endloop
  endfacet
  facet normal 0 -0.707107 0.707107
    outer loop
      vertex 2.43376 -20 3
      vertex 5.5 -18 5
      vertex -1.03035 -18 5
    endloop
  endfacet
  facet normal 0 -0.707107 0.707107
    outer loop
      vertex 5.5 -18 5
      vertex 2.43376 -20 3
      vertex 5.5 -20 3
    endloop
  endfacet
  facet normal -0.755929 0 0.654654
    outer loop
      vertex -16.3301 7.5 3
      vertex -14.5981 -6.5 5
      vertex -14.5981 6.5 5
    endloop
  endfacet
  facet normal -0.755929 0 0.654654
    outer loop
      vertex -14.5981 -6.5 5
      vertex -16.3301 7.5 3
      vertex -16.3301 -7.5 3
    endloop
  endfacet
  facet normal -1 0 0
    outer loop
      vertex -16.3301 -7.5 -3
      vertex -16.3301 7.5 3
      vertex -16.3301 7.5 -3
    endloop
  endfacet
  facet normal -1 -0 0
    outer loop
      vertex -16.3301 7.5 3
      vertex -16.3301 -7.5 -3
      vertex -16.3301 -7.5 3
    endloop
  endfacet
  facet normal -0.755929 0 -0.654654
    outer loop
      vertex -14.5981 -6.5 -5
      vertex -16.3301 7.5 -3
      vertex -14.5981 6.5 -5
    endloop
  endfacet
  facet normal -0.755929 -0 -0.654654
    outer loop
      vertex -16.3301 7.5 -3
      vertex -14.5981 -6.5 -5
      vertex -16.3301 -7.5 -3
    endloop
  endfacet
  facet normal 0.823639 -0.309017 0.475528
    outer loop
      vertex -10.1036 0 5
      vertex -3.66854 1.76336 -5
      vertex -9.44205 1.76336 5
    endloop
  endfacet
  facet normal 0.823639 -0.309017 0.475528
    outer loop
      vertex -3.66854 1.76336 -5
      vertex -10.1036 0 5
      vertex -4.33013 0 -5
    endloop
  endfacet
  facet normal -0.866025 0 -0.5
    outer loop
      vertex 11.547 -7.25 -5
      vertex 6.5 7.25 3.74167
      vertex 11.547 7.25 -5
    endloop
  endfacet
  facet normal -0.866025 -0 -0.5
    outer loop
      vertex 6.5 7.25 3.74167
      vertex 11.547 -7.25 -5
      vertex 6.5 -7.25 3.74167
    endloop
  endfacet
  facet normal 0.823639 0.309017 0.475528
    outer loop
      vertex -9.44205 -1.76336 5
      vertex -4.33013 0 -5
      vertex -10.1036 0 5
    endloop
  endfacet
  facet normal 0.823639 0.309017 0.475528
    outer loop
      vertex -4.33013 0 -5
      vertex -9.44205 -1.76336 5
      vertex -3.66854 -1.76336 -5
    endloop
  endfacet
  facet normal 0.509037 -0.809017 0.293893
    outer loop
      vertex -3.66854 1.76336 -5
      vertex -7.70999 2.85317 5
      vertex -9.44205 1.76336 5
    endloop
  endfacet
  facet normal 0.509037 -0.809017 0.293893
    outer loop
      vertex -7.70999 2.85317 5
      vertex -3.66854 1.76336 -5
      vertex -1.93649 2.85317 -5
    endloop
  endfacet
  facet normal 0.324951 -0.926935 0.187611
    outer loop
      vertex -1.93649 2.85317 -5
      vertex 0.055132 5.57535 5
      vertex -7.70999 2.85317 5
    endloop
  endfacet
  facet normal 0.324951 -0.926935 0.187611
    outer loop
      vertex 0.055132 5.57535 5
      vertex -1.93649 2.85317 -5
      vertex 5.5 5.57535 -4.43079
    endloop
  endfacet
  facet normal 0.324951 -0.926935 0.187611
    outer loop
      vertex 5.5 5.57535 -4.43079
      vertex -1.93649 2.85317 -5
      vertex 5.5 5.46015 -5
    endloop
  endfacet
  facet normal -0.700627 -0.587788 -0.404507
    outer loop
      vertex 11.547 7.25 -5
      vertex 6.5 7.48776 3.39618
      vertex 11.3475 7.48776 -5
    endloop
  endfacet
  facet normal -0.700627 -0.587788 -0.404507
    outer loop
      vertex 6.5 7.48776 3.39618
      vertex 11.547 7.25 -5
      vertex 6.5 7.25 3.74167
    endloop
  endfacet
  facet normal -0.700627 0.587788 -0.404507
    outer loop
      vertex 6.5 -7.48776 3.39618
      vertex 11.547 -7.25 -5
      vertex 11.3475 -7.48776 -5
    endloop
  endfacet
  facet normal -0.700627 0.587788 -0.404507
    outer loop
      vertex 11.547 -7.25 -5
      vertex 6.5 -7.48776 3.39618
      vertex 6.5 -7.25 3.74167
    endloop
  endfacet
  facet normal 0.324951 0.926935 0.187611
    outer loop
      vertex -1.93649 -2.85317 -5
      vertex 0.055132 -5.57535 5
      vertex 5.5 -5.57535 -4.43079
    endloop
  endfacet
  facet normal 0.324951 0.926935 0.187611
    outer loop
      vertex -1.93649 -2.85317 -5
      vertex 5.5 -5.57535 -4.43079
      vertex 5.5 -5.46015 -5
    endloop
  endfacet
  facet normal 0.324951 0.926935 0.187611
    outer loop
      vertex 0.055132 -5.57535 5
      vertex -1.93649 -2.85317 -5
      vertex -7.70999 -2.85317 5
    endloop
  endfacet
  facet normal 0.509037 0.809017 0.293893
    outer loop
      vertex -3.66854 -1.76336 -5
      vertex -7.70999 -2.85317 5
      vertex -1.93649 -2.85317 -5
    endloop
  endfacet
  facet normal 0.509037 0.809017 0.293893
    outer loop
      vertex -7.70999 -2.85317 5
      vertex -3.66854 -1.76336 -5
      vertex -9.44205 -1.76336 5
    endloop
  endfacet
  facet normal 0.866025 -0 0.5
    outer loop
      vertex 0.055132 -7.39695 5
      vertex 5.5 -5.57535 -4.43079
      vertex 0.055132 -5.57535 5
    endloop
  endfacet
  facet normal 0.866025 0 0.5
    outer loop
      vertex 5.5 -5.57535 -4.43079
      vertex 0.055132 -7.39695 5
      vertex 5.5 -7.39695 -4.43079
    endloop
  endfacet
  facet normal 0.866025 -0 0.5
    outer loop
      vertex 0.055132 5.57535 5
      vertex 5.5 7.39695 -4.43079
      vertex 0.055132 7.39695 5
    endloop
  endfacet
  facet normal 0.866025 0 0.5
    outer loop
      vertex 5.5 7.39695 -4.43079
      vertex 0.055132 5.57535 5
      vertex 5.5 5.57535 -4.43079
    endloop
  endfacet
  facet normal 0.267616 -0.951057 0.154508
    outer loop
      vertex 0.055132 7.39695 5
      vertex 5.5 7.48776 -3.87177
      vertex 0.37788 7.48776 5
    endloop
  endfacet
  facet normal 0.267616 -0.951057 0.154508
    outer loop
      vertex 5.5 7.48776 -3.87177
      vertex 0.055132 7.39695 5
      vertex 5.5 7.39695 -4.43079
    endloop
  endfacet
  facet normal 0 -1 0
    outer loop
      vertex 5.5 7.48776 -3.87177
      vertex 5.5 7.48776 5
      vertex 0.37788 7.48776 5
    endloop
  endfacet
  facet normal 0 -1 0
    outer loop
      vertex 11.3475 7.48776 -5
      vertex 6.5 7.48776 3.39618
      vertex 6.5 7.48776 -5
    endloop
  endfacet
  facet normal 0 1 0
    outer loop
      vertex 5.5 -7.48776 5
      vertex 5.5 -7.48776 -3.87177
      vertex 0.37788 -7.48776 5
    endloop
  endfacet
  facet normal 0 1 0
    outer loop
      vertex 6.5 -7.48776 3.39618
      vertex 11.3475 -7.48776 -5
      vertex 6.5 -7.48776 -5
    endloop
  endfacet
  facet normal 0.267616 0.951057 0.154508
    outer loop
      vertex 5.5 -7.48776 -3.87177
      vertex 0.055132 -7.39695 5
      vertex 0.37788 -7.48776 5
    endloop
  endfacet
  facet normal 0.267616 0.951057 0.154508
    outer loop
      vertex 0.055132 -7.39695 5
      vertex 5.5 -7.48776 -3.87177
      vertex 5.5 -7.39695 -4.43079
    endloop
  endfacet
  facet normal 0 -0.587786 0.809017
    outer loop
      vertex 6.5 14.1888 -0.386271
      vertex 9 13 -1.25
      vertex 9 14.1888 -0.386271
    endloop
  endfacet
  facet normal 0 -0.587786 0.809017
    outer loop
      vertex 9 13 -1.25
      vertex 6.5 14.1888 -0.386271
      vertex 6.5 13 -1.25
    endloop
  endfacet
  facet normal 0 -0.587786 0.809017
    outer loop
      vertex -12.4683 14.1888 -0.386271
      vertex 5.5 13 -1.25
      vertex 5.5 14.1888 -0.386271
    endloop
  endfacet
  facet normal 0 -0.587786 0.809017
    outer loop
      vertex 5.5 13 -1.25
      vertex -12.4683 14.1888 -0.386271
      vertex -13.1547 13 -1.25
    endloop
  endfacet
  facet normal 0 0 -1
    outer loop
      vertex 6.5 12.2653 1.01127
      vertex 9 13.7347 1.01127
      vertex 9 12.2653 1.01127
    endloop
  endfacet
  facet normal -0 0 -1
    outer loop
      vertex 9 13.7347 1.01127
      vertex 6.5 12.2653 1.01127
      vertex 6.5 13.7347 1.01127
    endloop
  endfacet
  facet normal 0 0 -1
    outer loop
      vertex 5.5 12.2653 1.01127
      vertex -12.7305 13.7347 1.01127
      vertex 5.5 13.7347 1.01127
    endloop
  endfacet
  facet normal 0 -0 -1
    outer loop
      vertex -12.7305 13.7347 1.01127
      vertex 5.5 12.2653 1.01127
      vertex -13.5789 12.2653 1.01127
    endloop
  endfacet
  facet normal 0 -0.951056 -0.309017
    outer loop
      vertex 6.5 14.1888 -0.386271
      vertex 9 13.7347 1.01127
      vertex 6.5 13.7347 1.01127
    endloop
  endfacet
  facet normal 0 -0.951056 -0.309017
    outer loop
      vertex 9 13.7347 1.01127
      vertex 6.5 14.1888 -0.386271
      vertex 9 14.1888 -0.386271
    endloop
  endfacet
  facet normal 0 -0.951056 -0.309017
    outer loop
      vertex -12.4683 14.1888 -0.386271
      vertex 5.5 13.7347 1.01127
      vertex -12.7305 13.7347 1.01127
    endloop
  endfacet
  facet normal 0 -0.951056 -0.309017
    outer loop
      vertex 5.5 13.7347 1.01127
      vertex -12.4683 14.1888 -0.386271
      vertex 5.5 14.1888 -0.386271
    endloop
  endfacet
  facet normal 0 0.951056 -0.309017
    outer loop
      vertex 9 11.8112 -0.386271
      vertex 6.5 12.2653 1.01127
      vertex 9 12.2653 1.01127
    endloop
  endfacet
  facet normal 0 0.951056 -0.309017
    outer loop
      vertex 6.5 12.2653 1.01127
      vertex 9 11.8112 -0.386271
      vertex 6.5 11.8112 -0.386271
    endloop
  endfacet
  facet normal 0 0.951056 -0.309017
    outer loop
      vertex 5.5 11.8112 -0.386271
      vertex -13.5789 12.2653 1.01127
      vertex 5.5 12.2653 1.01127
    endloop
  endfacet
  facet normal 0 0.951056 -0.309017
    outer loop
      vertex -13.5789 12.2653 1.01127
      vertex 5.5 11.8112 -0.386271
      vertex -13.8411 11.8112 -0.386271
    endloop
  endfacet
  facet normal -0 0.587786 0.809017
    outer loop
      vertex 6.5 13 -1.25
      vertex 9 11.8112 -0.386271
      vertex 9 13 -1.25
    endloop
  endfacet
  facet normal 0 0.587786 0.809017
    outer loop
      vertex 9 11.8112 -0.386271
      vertex 6.5 13 -1.25
      vertex 6.5 11.8112 -0.386271
    endloop
  endfacet
  facet normal -0 0.587786 0.809017
    outer loop
      vertex -13.1547 13 -1.25
      vertex 5.5 11.8112 -0.386271
      vertex 5.5 13 -1.25
    endloop
  endfacet
  facet normal 0 0.587786 0.809017
    outer loop
      vertex 5.5 11.8112 -0.386271
      vertex -13.1547 13 -1.25
      vertex -13.8411 11.8112 -0.386271
    endloop
  endfacet
  facet normal 0 -0.309017 0.951056
    outer loop
      vertex 9 14.7634 -2.42705
      vertex 14 13 -3
      vertex 14 14.7634 -2.42705
    endloop
  endfacet
  facet normal 0 -0.309017 0.951056
    outer loop
      vertex 14 13 -3
      vertex 9 14.7634 -2.42705
      vertex 9 13 -3
    endloop
  endfacet
  facet normal 0 -0.309017 -0.951056
    outer loop
      vertex 9 13 3
      vertex 14 14.7634 2.42705
      vertex 14 13 3
    endloop
  endfacet
  facet normal -0 -0.309017 -0.951056
    outer loop
      vertex 14 14.7634 2.42705
      vertex 9 13 3
      vertex 9 14.7634 2.42705
    endloop
  endfacet
  facet normal 0 1 -0
    outer loop
      vertex 14 10.1468 -0.927051
      vertex 9 10.1468 0.927051
      vertex 14 10.1468 0.927051
    endloop
  endfacet
  facet normal 0 1 0
    outer loop
      vertex 9 10.1468 0.927051
      vertex 14 10.1468 -0.927051
      vertex 9 10.1468 -0.927051
    endloop
  endfacet
  facet normal 0 -1 0
    outer loop
      vertex 9 15.8532 -0.927051
      vertex 14 15.8532 0.927051
      vertex 9 15.8532 0.927051
    endloop
  endfacet
  facet normal 0 -1 -0
    outer loop
      vertex 14 15.8532 0.927051
      vertex 9 15.8532 -0.927051
      vertex 14 15.8532 -0.927051
    endloop
  endfacet
  facet normal 0 -0.809017 0.587785
    outer loop
      vertex 9 14.7634 -2.42705
      vertex 14 15.8532 -0.927051
      vertex 9 15.8532 -0.927051
    endloop
  endfacet
  facet normal 0 -0.809017 0.587785
    outer loop
      vertex 14 15.8532 -0.927051
      vertex 9 14.7634 -2.42705
      vertex 14 14.7634 -2.42705
    endloop
  endfacet
  facet normal 0 -0.809017 -0.587785
    outer loop
      vertex 9 15.8532 0.927051
      vertex 14 14.7634 2.42705
      vertex 9 14.7634 2.42705
    endloop
  endfacet
  facet normal 0 -0.809017 -0.587785
    outer loop
      vertex 14 14.7634 2.42705
      vertex 9 15.8532 0.927051
      vertex 14 15.8532 0.927051
    endloop
  endfacet
  facet normal 1 -0 0
    outer loop
      vertex 9 13.7347 1.01127
      vertex 9 15.8532 0.927051
      vertex 9 14.7634 2.42705
    endloop
  endfacet
  facet normal 1 0 0
    outer loop
      vertex 9 15.8532 0.927051
      vertex 9 14.1888 -0.386271
      vertex 9 15.8532 -0.927051
    endloop
  endfacet
  facet normal 1 0 0
    outer loop
      vertex 9 15.8532 -0.927051
      vertex 9 14.1888 -0.386271
      vertex 9 14.7634 -2.42705
    endloop
  endfacet
  facet normal 1 0 0
    outer loop
      vertex 9 15.8532 0.927051
      vertex 9 13.7347 1.01127
      vertex 9 14.1888 -0.386271
    endloop
  endfacet
  facet normal 1 0 0
    outer loop
      vertex 9 13 3
      vertex 9 13.7347 1.01127
      vertex 9 14.7634 2.42705
    endloop
  endfacet
  facet normal 1 0 0
    outer loop
      vertex 9 13 3
      vertex 9 12.2653 1.01127
      vertex 9 13.7347 1.01127
    endloop
  endfacet
  facet normal 1 0 0
    outer loop
      vertex 9 10.1468 0.927051
      vertex 9 12.2653 1.01127
      vertex 9 11.2366 2.42705
    endloop
  endfacet
  facet normal 1 -0 0
    outer loop
      vertex 9 11.2366 2.42705
      vertex 9 12.2653 1.01127
      vertex 9 13 3
    endloop
  endfacet
  facet normal 1 -0 0
    outer loop
      vertex 9 13 -1.25
      vertex 9 14.7634 -2.42705
      vertex 9 14.1888 -0.386271
    endloop
  endfacet
  facet normal 1 0 0
    outer loop
      vertex 9 13 -1.25
      vertex 9 13 -3
      vertex 9 14.7634 -2.42705
    endloop
  endfacet
  facet normal 1 0 0
    outer loop
      vertex 9 11.2366 -2.42705
      vertex 9 13 -1.25
      vertex 9 11.8112 -0.386271
    endloop
  endfacet
  facet normal 1 0 0
    outer loop
      vertex 9 13 -1.25
      vertex 9 11.2366 -2.42705
      vertex 9 13 -3
    endloop
  endfacet
  facet normal 1 0 0
    outer loop
      vertex 9 12.2653 1.01127
      vertex 9 10.1468 0.927051
      vertex 9 11.8112 -0.386271
    endloop
  endfacet
  facet normal 1 0 0
    outer loop
      vertex 9 10.1468 -0.927051
      vertex 9 11.8112 -0.386271
      vertex 9 10.1468 0.927051
    endloop
  endfacet
  facet normal 1 0 0
    outer loop
      vertex 9 11.8112 -0.386271
      vertex 9 10.1468 -0.927051
      vertex 9 11.2366 -2.42705
    endloop
  endfacet
  facet normal 0 0.809017 0.587785
    outer loop
      vertex 14 11.2366 -2.42705
      vertex 9 10.1468 -0.927051
      vertex 14 10.1468 -0.927051
    endloop
  endfacet
  facet normal 0 0.809017 0.587785
    outer loop
      vertex 9 10.1468 -0.927051
      vertex 14 11.2366 -2.42705
      vertex 9 11.2366 -2.42705
    endloop
  endfacet
  facet normal 0 0.809017 -0.587785
    outer loop
      vertex 14 10.1468 0.927051
      vertex 9 11.2366 2.42705
      vertex 14 11.2366 2.42705
    endloop
  endfacet
  facet normal 0 0.809017 -0.587785
    outer loop
      vertex 9 11.2366 2.42705
      vertex 14 10.1468 0.927051
      vertex 9 10.1468 0.927051
    endloop
  endfacet
  facet normal 0 0.309017 -0.951056
    outer loop
      vertex 9 11.2366 2.42705
      vertex 14 13 3
      vertex 14 11.2366 2.42705
    endloop
  endfacet
  facet normal 0 0.309017 -0.951056
    outer loop
      vertex 14 13 3
      vertex 9 11.2366 2.42705
      vertex 9 13 3
    endloop
  endfacet
  facet normal -0 0.309017 0.951056
    outer loop
      vertex 9 13 -3
      vertex 14 11.2366 -2.42705
      vertex 14 13 -3
    endloop
  endfacet
  facet normal 0 0.309017 0.951056
    outer loop
      vertex 14 11.2366 -2.42705
      vertex 9 13 -3
      vertex 9 11.2366 -2.42705
    endloop
  endfacet
  facet normal 0 -0.587786 0.809017
    outer loop
      vertex 6.5 -11.8112 -0.386271
      vertex 9 -13 -1.25
      vertex 9 -11.8112 -0.386271
    endloop
  endfacet
  facet normal 0 -0.587786 0.809017
    outer loop
      vertex 9 -13 -1.25
      vertex 6.5 -11.8112 -0.386271
      vertex 6.5 -13 -1.25
    endloop
  endfacet
  facet normal 0 -0.587786 0.809017
    outer loop
      vertex 5.5 -11.8112 -0.386271
      vertex -13.1547 -13 -1.25
      vertex 5.5 -13 -1.25
    endloop
  endfacet
  facet normal 0 -0.587786 0.809017
    outer loop
      vertex -13.1547 -13 -1.25
      vertex 5.5 -11.8112 -0.386271
      vertex -13.8411 -11.8112 -0.386271
    endloop
  endfacet
  facet normal 0 0 -1
    outer loop
      vertex 6.5 -13.7347 1.01127
      vertex 9 -12.2653 1.01127
      vertex 9 -13.7347 1.01127
    endloop
  endfacet
  facet normal -0 0 -1
    outer loop
      vertex 9 -12.2653 1.01127
      vertex 6.5 -13.7347 1.01127
      vertex 6.5 -12.2653 1.01127
    endloop
  endfacet
  facet normal 0 0 -1
    outer loop
      vertex -12.7305 -13.7347 1.01127
      vertex 5.5 -12.2653 1.01127
      vertex 5.5 -13.7347 1.01127
    endloop
  endfacet
  facet normal -0 0 -1
    outer loop
      vertex 5.5 -12.2653 1.01127
      vertex -12.7305 -13.7347 1.01127
      vertex -13.5789 -12.2653 1.01127
    endloop
  endfacet
  facet normal 0 -0.951056 -0.309017
    outer loop
      vertex 6.5 -11.8112 -0.386271
      vertex 9 -12.2653 1.01127
      vertex 6.5 -12.2653 1.01127
    endloop
  endfacet
  facet normal 0 -0.951056 -0.309017
    outer loop
      vertex 9 -12.2653 1.01127
      vertex 6.5 -11.8112 -0.386271
      vertex 9 -11.8112 -0.386271
    endloop
  endfacet
  facet normal -0 -0.951056 -0.309017
    outer loop
      vertex 5.5 -11.8112 -0.386271
      vertex -13.5789 -12.2653 1.01127
      vertex -13.8411 -11.8112 -0.386271
    endloop
  endfacet
  facet normal 0 -0.951056 -0.309017
    outer loop
      vertex -13.5789 -12.2653 1.01127
      vertex 5.5 -11.8112 -0.386271
      vertex 5.5 -12.2653 1.01127
    endloop
  endfacet
  facet normal 0 0.951056 -0.309017
    outer loop
      vertex 9 -14.1888 -0.386271
      vertex 6.5 -13.7347 1.01127
      vertex 9 -13.7347 1.01127
    endloop
  endfacet
  facet normal 0 0.951056 -0.309017
    outer loop
      vertex 6.5 -13.7347 1.01127
      vertex 9 -14.1888 -0.386271
      vertex 6.5 -14.1888 -0.386271
    endloop
  endfacet
  facet normal 0 0.951056 -0.309017
    outer loop
      vertex -12.4683 -14.1888 -0.386271
      vertex 5.5 -13.7347 1.01127
      vertex 5.5 -14.1888 -0.386271
    endloop
  endfacet
  facet normal 0 0.951056 -0.309017
    outer loop
      vertex 5.5 -13.7347 1.01127
      vertex -12.4683 -14.1888 -0.386271
      vertex -12.7305 -13.7347 1.01127
    endloop
  endfacet
  facet normal -0 0.587786 0.809017
    outer loop
      vertex 6.5 -13 -1.25
      vertex 9 -14.1888 -0.386271
      vertex 9 -13 -1.25
    endloop
  endfacet
  facet normal 0 0.587786 0.809017
    outer loop
      vertex 9 -14.1888 -0.386271
      vertex 6.5 -13 -1.25
      vertex 6.5 -14.1888 -0.386271
    endloop
  endfacet
  facet normal 0 0.587786 0.809017
    outer loop
      vertex 5.5 -13 -1.25
      vertex -12.4683 -14.1888 -0.386271
      vertex 5.5 -14.1888 -0.386271
    endloop
  endfacet
  facet normal 0 0.587786 0.809017
    outer loop
      vertex -12.4683 -14.1888 -0.386271
      vertex 5.5 -13 -1.25
      vertex -13.1547 -13 -1.25
    endloop
  endfacet
  facet normal 0 -0.309017 0.951056
    outer loop
      vertex 9 -11.2366 -2.42705
      vertex 14 -13 -3
      vertex 14 -11.2366 -2.42705
    endloop
  endfacet
  facet normal 0 -0.309017 0.951056
    outer loop
      vertex 14 -13 -3
      vertex 9 -11.2366 -2.42705
      vertex 9 -13 -3
    endloop
  endfacet
  facet normal 0 -0.309017 -0.951056
    outer loop
      vertex 9 -13 3
      vertex 14 -11.2366 2.42705
      vertex 14 -13 3
    endloop
  endfacet
  facet normal -0 -0.309017 -0.951056
    outer loop
      vertex 14 -11.2366 2.42705
      vertex 9 -13 3
      vertex 9 -11.2366 2.42705
    endloop
  endfacet
  facet normal 0 1 -0
    outer loop
      vertex 14 -15.8532 -0.927051
      vertex 9 -15.8532 0.927051
      vertex 14 -15.8532 0.927051
    endloop
  endfacet
  facet normal 0 1 0
    outer loop
      vertex 9 -15.8532 0.927051
      vertex 14 -15.8532 -0.927051
      vertex 9 -15.8532 -0.927051
    endloop
  endfacet
  facet normal 0 -1 0
    outer loop
      vertex 9 -10.1468 -0.927051
      vertex 14 -10.1468 0.927051
      vertex 9 -10.1468 0.927051
    endloop
  endfacet
  facet normal 0 -1 -0
    outer loop
      vertex 14 -10.1468 0.927051
      vertex 9 -10.1468 -0.927051
      vertex 14 -10.1468 -0.927051
    endloop
  endfacet
  facet normal 0 -0.809017 0.587785
    outer loop
      vertex 9 -11.2366 -2.42705
      vertex 14 -10.1468 -0.927051
      vertex 9 -10.1468 -0.927051
    endloop
  endfacet
  facet normal 0 -0.809017 0.587785
    outer loop
      vertex 14 -10.1468 -0.927051
      vertex 9 -11.2366 -2.42705
      vertex 14 -11.2366 -2.42705
    endloop
  endfacet
  facet normal 0 -0.809017 -0.587785
    outer loop
      vertex 9 -10.1468 0.927051
      vertex 14 -11.2366 2.42705
      vertex 9 -11.2366 2.42705
    endloop
  endfacet
  facet normal 0 -0.809017 -0.587785
    outer loop
      vertex 14 -11.2366 2.42705
      vertex 9 -10.1468 0.927051
      vertex 14 -10.1468 0.927051
    endloop
  endfacet
  facet normal 1 -0 0
    outer loop
      vertex 9 -12.2653 1.01127
      vertex 9 -10.1468 0.927051
      vertex 9 -11.2366 2.42705
    endloop
  endfacet
  facet normal 1 0 0
    outer loop
      vertex 9 -10.1468 0.927051
      vertex 9 -11.8112 -0.386271
      vertex 9 -10.1468 -0.927051
    endloop
  endfacet
  facet normal 1 0 0
    outer loop
      vertex 9 -10.1468 -0.927051
      vertex 9 -11.8112 -0.386271
      vertex 9 -11.2366 -2.42705
    endloop
  endfacet
  facet normal 1 0 0
    outer loop
      vertex 9 -10.1468 0.927051
      vertex 9 -12.2653 1.01127
      vertex 9 -11.8112 -0.386271
    endloop
  endfacet
  facet normal 1 0 0
    outer loop
      vertex 9 -13 3
      vertex 9 -12.2653 1.01127
      vertex 9 -11.2366 2.42705
    endloop
  endfacet
  facet normal 1 0 0
    outer loop
      vertex 9 -13 3
      vertex 9 -13.7347 1.01127
      vertex 9 -12.2653 1.01127
    endloop
  endfacet
  facet normal 1 0 0
    outer loop
      vertex 9 -15.8532 0.927051
      vertex 9 -13.7347 1.01127
      vertex 9 -14.7634 2.42705
    endloop
  endfacet
  facet normal 1 -0 0
    outer loop
      vertex 9 -14.7634 2.42705
      vertex 9 -13.7347 1.01127
      vertex 9 -13 3
    endloop
  endfacet
  facet normal 1 -0 0
    outer loop
      vertex 9 -13 -1.25
      vertex 9 -11.2366 -2.42705
      vertex 9 -11.8112 -0.386271
    endloop
  endfacet
  facet normal 1 0 0
    outer loop
      vertex 9 -13 -1.25
      vertex 9 -13 -3
      vertex 9 -11.2366 -2.42705
    endloop
  endfacet
  facet normal 1 0 0
    outer loop
      vertex 9 -14.7634 -2.42705
      vertex 9 -13 -1.25
      vertex 9 -14.1888 -0.386271
    endloop
  endfacet
  facet normal 1 0 0
    outer loop
      vertex 9 -13 -1.25
      vertex 9 -14.7634 -2.42705
      vertex 9 -13 -3
    endloop
  endfacet
  facet normal 1 0 0
    outer loop
      vertex 9 -13.7347 1.01127
      vertex 9 -15.8532 0.927051
      vertex 9 -14.1888 -0.386271
    endloop
  endfacet
  facet normal 1 0 0
    outer loop
      vertex 9 -15.8532 -0.927051
      vertex 9 -14.1888 -0.386271
      vertex 9 -15.8532 0.927051
    endloop
  endfacet
  facet normal 1 0 0
    outer loop
      vertex 9 -14.1888 -0.386271
      vertex 9 -15.8532 -0.927051
      vertex 9 -14.7634 -2.42705
    endloop
  endfacet
  facet normal 0 0.809017 0.587785
    outer loop
      vertex 14 -14.7634 -2.42705
      vertex 9 -15.8532 -0.927051
      vertex 14 -15.8532 -0.927051
    endloop
  endfacet
  facet normal 0 0.809017 0.587785
    outer loop
      vertex 9 -15.8532 -0.927051
      vertex 14 -14.7634 -2.42705
      vertex 9 -14.7634 -2.42705
    endloop
  endfacet
  facet normal 0 0.809017 -0.587785
    outer loop
      vertex 14 -15.8532 0.927051
      vertex 9 -14.7634 2.42705
      vertex 14 -14.7634 2.42705
    endloop
  endfacet
  facet normal 0 0.809017 -0.587785
    outer loop
      vertex 9 -14.7634 2.42705
      vertex 14 -15.8532 0.927051
      vertex 9 -15.8532 0.927051
    endloop
  endfacet
  facet normal 0 0.309017 -0.951056
    outer loop
      vertex 9 -14.7634 2.42705
      vertex 14 -13 3
      vertex 14 -14.7634 2.42705
    endloop
  endfacet
  facet normal 0 0.309017 -0.951056
    outer loop
      vertex 14 -13 3
      vertex 9 -14.7634 2.42705
      vertex 9 -13 3
    endloop
  endfacet
  facet normal -0 0.309017 0.951056
    outer loop
      vertex 9 -13 -3
      vertex 14 -14.7634 -2.42705
      vertex 14 -13 -3
    endloop
  endfacet
  facet normal 0 0.309017 0.951056
    outer loop
      vertex 14 -14.7634 -2.42705
      vertex 9 -13 -3
      vertex 9 -14.7634 -2.42705
    endloop
  endfacet
  facet normal 1 0 0
    outer loop
      vertex 5.5 13.7347 1.01127
      vertex 5.5 20 3
      vertex 5.5 18 5
    endloop
  endfacet
  facet normal 1 0 0
    outer loop
      vertex 5.5 20 3
      vertex 5.5 14.1888 -0.386271
      vertex 5.5 20 -3
    endloop
  endfacet
  facet normal 1 0 0
    outer loop
      vertex 5.5 20 -3
      vertex 5.5 14.1888 -0.386271
      vertex 5.5 18 -5
    endloop
  endfacet
  facet normal 1 0 0
    outer loop
      vertex 5.5 20 3
      vertex 5.5 13.7347 1.01127
      vertex 5.5 14.1888 -0.386271
    endloop
  endfacet
  facet normal 1 0 0
    outer loop
      vertex 5.5 18 5
      vertex 5.5 12.2653 1.01127
      vertex 5.5 13.7347 1.01127
    endloop
  endfacet
  facet normal 1 0 0
    outer loop
      vertex 5.5 12.2653 1.01127
      vertex 5.5 7.48776 5
      vertex 5.5 11.8112 -0.386271
    endloop
  endfacet
  facet normal 1 -0 0
    outer loop
      vertex 5.5 7.48776 5
      vertex 5.5 12.2653 1.01127
      vertex 5.5 18 5
    endloop
  endfacet
  facet normal 1 -0 0
    outer loop
      vertex 5.5 13 -1.25
      vertex 5.5 18 -5
      vertex 5.5 14.1888 -0.386271
    endloop
  endfacet
  facet normal 1 0 0
    outer loop
      vertex 5.5 7.48776 -3.87177
      vertex 5.5 13 -1.25
      vertex 5.5 11.8112 -0.386271
    endloop
  endfacet
  facet normal 1 0 0
    outer loop
      vertex 5.5 7.48776 -3.87177
      vertex 5.5 11.8112 -0.386271
      vertex 5.5 7.48776 5
    endloop
  endfacet
  facet normal 1 0 0
    outer loop
      vertex 5.5 13 -1.25
      vertex 5.5 7.48776 -3.87177
      vertex 5.5 7.39695 -4.43079
    endloop
  endfacet
  facet normal 1 0 0
    outer loop
      vertex 5.5 13 -1.25
      vertex 5.5 7.39695 -4.43079
      vertex 5.5 18 -5
    endloop
  endfacet
  facet normal 1 0 0
    outer loop
      vertex 5.5 5.46015 -5
      vertex 5.5 7.39695 -4.43079
      vertex 5.5 5.57535 -4.43079
    endloop
  endfacet
  facet normal 1 0 0
    outer loop
      vertex 5.5 7.39695 -4.43079
      vertex 5.5 5.46015 -5
      vertex 5.5 18 -5
    endloop
  endfacet
  facet normal 1 0 0
    outer loop
      vertex 5.5 -7.48776 5
      vertex 5.5 -11.8112 -0.386271
      vertex 5.5 -7.48776 -3.87177
    endloop
  endfacet
  facet normal 1 0 0
    outer loop
      vertex 5.5 -7.48776 5
      vertex 5.5 -12.2653 1.01127
      vertex 5.5 -11.8112 -0.386271
    endloop
  endfacet
  facet normal 1 -0 0
    outer loop
      vertex 5.5 -18 5
      vertex 5.5 -12.2653 1.01127
      vertex 5.5 -7.48776 5
    endloop
  endfacet
  facet normal 1 -0 0
    outer loop
      vertex 5.5 -20 3
      vertex 5.5 -13.7347 1.01127
      vertex 5.5 -18 5
    endloop
  endfacet
  facet normal 1 0 0
    outer loop
      vertex 5.5 -12.2653 1.01127
      vertex 5.5 -18 5
      vertex 5.5 -13.7347 1.01127
    endloop
  endfacet
  facet normal 1 -0 0
    outer loop
      vertex 5.5 -7.39695 -4.43079
      vertex 5.5 -5.46015 -5
      vertex 5.5 -5.57535 -4.43079
    endloop
  endfacet
  facet normal 1 -0 0
    outer loop
      vertex 5.5 -13 -1.25
      vertex 5.5 -7.48776 -3.87177
      vertex 5.5 -11.8112 -0.386271
    endloop
  endfacet
  facet normal 1 0 0
    outer loop
      vertex 5.5 -7.48776 -3.87177
      vertex 5.5 -13 -1.25
      vertex 5.5 -7.39695 -4.43079
    endloop
  endfacet
  facet normal 1 0 0
    outer loop
      vertex 5.5 -7.39695 -4.43079
      vertex 5.5 -18 -5
      vertex 5.5 -5.46015 -5
    endloop
  endfacet
  facet normal 1 0 0
    outer loop
      vertex 5.5 -13 -1.25
      vertex 5.5 -18 -5
      vertex 5.5 -7.39695 -4.43079
    endloop
  endfacet
  facet normal 1 0 0
    outer loop
      vertex 5.5 -14.1888 -0.386271
      vertex 5.5 -18 -5
      vertex 5.5 -13 -1.25
    endloop
  endfacet
  facet normal 1 0 0
    outer loop
      vertex 5.5 -13.7347 1.01127
      vertex 5.5 -20 3
      vertex 5.5 -14.1888 -0.386271
    endloop
  endfacet
  facet normal 1 0 0
    outer loop
      vertex 5.5 -20 -3
      vertex 5.5 -14.1888 -0.386271
      vertex 5.5 -20 3
    endloop
  endfacet
  facet normal 1 0 0
    outer loop
      vertex 5.5 -14.1888 -0.386271
      vertex 5.5 -20 -3
      vertex 5.5 -18 -5
    endloop
  endfacet
  facet normal -1 0 0
    outer loop
      vertex 6.5 -7.48776 -5
      vertex 6.5 -11.8112 -0.386271
      vertex 6.5 -7.48776 3.39618
    endloop
  endfacet
  facet normal -1 0 0
    outer loop
      vertex 6.5 -7.48776 -5
      vertex 6.5 -13 -1.25
      vertex 6.5 -11.8112 -0.386271
    endloop
  endfacet
  facet normal -1 -0 0
    outer loop
      vertex 6.5 -13 -1.25
      vertex 6.5 -18 -5
      vertex 6.5 -14.1888 -0.386271
    endloop
  endfacet
  facet normal -1 0 0
    outer loop
      vertex 6.5 -18 -5
      vertex 6.5 -13 -1.25
      vertex 6.5 -7.48776 -5
    endloop
  endfacet
  facet normal -1 0 0
    outer loop
      vertex 6.5 14.1888 -0.386271
      vertex 6.5 20 -3
      vertex 6.5 18 -5
    endloop
  endfacet
  facet normal -1 0 0
    outer loop
      vertex 6.5 20 -3
      vertex 6.5 14.1888 -0.386271
      vertex 6.5 20 3
    endloop
  endfacet
  facet normal -1 0 0
    outer loop
      vertex 6.5 13.7347 1.01127
      vertex 6.5 20 3
      vertex 6.5 14.1888 -0.386271
    endloop
  endfacet
  facet normal -1 0 0
    outer loop
      vertex 6.5 18 -5
      vertex 6.5 13 -1.25
      vertex 6.5 14.1888 -0.386271
    endloop
  endfacet
  facet normal -1 0 0
    outer loop
      vertex 6.5 7.48776 -5
      vertex 6.5 13 -1.25
      vertex 6.5 18 -5
    endloop
  endfacet
  facet normal -1 -0 0
    outer loop
      vertex 6.5 13 -1.25
      vertex 6.5 7.48776 -5
      vertex 6.5 11.8112 -0.386271
    endloop
  endfacet
  facet normal -1 -0 0
    outer loop
      vertex 6.5 20 3
      vertex 6.5 13.7347 1.01127
      vertex 6.5 18 5
    endloop
  endfacet
  facet normal -1 0 0
    outer loop
      vertex 6.5 12.2653 1.01127
      vertex 6.5 18 5
      vertex 6.5 13.7347 1.01127
    endloop
  endfacet
  facet normal -1 0 0
    outer loop
      vertex 6.5 7.48776 3.39618
      vertex 6.5 11.8112 -0.386271
      vertex 6.5 7.48776 -5
    endloop
  endfacet
  facet normal -1 0 0
    outer loop
      vertex 6.5 11.8112 -0.386271
      vertex 6.5 7.48776 3.39618
      vertex 6.5 12.2653 1.01127
    endloop
  endfacet
  facet normal -1 0 0
    outer loop
      vertex 6.5 7.25 3.74167
      vertex 6.5 12.2653 1.01127
      vertex 6.5 7.48776 3.39618
    endloop
  endfacet
  facet normal -1 0 0
    outer loop
      vertex 6.5 12.2653 1.01127
      vertex 6.5 7.25 3.74167
      vertex 6.5 18 5
    endloop
  endfacet
  facet normal -1 0 0
    outer loop
      vertex 6.5 -7.25 3.74167
      vertex 6.5 18 5
      vertex 6.5 7.25 3.74167
    endloop
  endfacet
  facet normal -1 0 0
    outer loop
      vertex 6.5 -12.2653 1.01127
      vertex 6.5 -7.48776 3.39618
      vertex 6.5 -11.8112 -0.386271
    endloop
  endfacet
  facet normal -1 -0 0
    outer loop
      vertex 6.5 -7.48776 3.39618
      vertex 6.5 -12.2653 1.01127
      vertex 6.5 -7.25 3.74167
    endloop
  endfacet
  facet normal -1 0 0
    outer loop
      vertex 6.5 -18 5
      vertex 6.5 -12.2653 1.01127
      vertex 6.5 -13.7347 1.01127
    endloop
  endfacet
  facet normal -1 0 0
    outer loop
      vertex 6.5 -20 -3
      vertex 6.5 -14.1888 -0.386271
      vertex 6.5 -18 -5
    endloop
  endfacet
  facet normal -1 0 0
    outer loop
      vertex 6.5 -7.25 3.74167
      vertex 6.5 -18 5
      vertex 6.5 18 5
    endloop
  endfacet
  facet normal -1 0 0
    outer loop
      vertex 6.5 -12.2653 1.01127
      vertex 6.5 -18 5
      vertex 6.5 -7.25 3.74167
    endloop
  endfacet
  facet normal -1 0 0
    outer loop
      vertex 6.5 -20 3
      vertex 6.5 -14.1888 -0.386271
      vertex 6.5 -20 -3
    endloop
  endfacet
  facet normal -1 0 0
    outer loop
      vertex 6.5 -14.1888 -0.386271
      vertex 6.5 -20 3
      vertex 6.5 -13.7347 1.01127
    endloop
  endfacet
  facet normal -1 0 0
    outer loop
      vertex 6.5 -13.7347 1.01127
      vertex 6.5 -20 3
      vertex 6.5 -18 5
    endloop
  endfacet
endsolid OpenSCAD_Model
